<svg width="366" height="95" viewBox="0 0 236 61" fill="none" xmlns="http://www.w3.org/2000/svg">
<path d="M0.453262 5.96094H9.84592L16.7204 27.9915H16.8212L24.0734 5.96094H32.7106L21.0013 40.0127H12.1626L0.453262 5.96094Z" fill="#22C55E"/>
<path d="M32.8869 22.8996C32.8869 10.4811 41.4738 5.31494 49.7836 5.31494C58.0935 5.31494 66.6551 10.4811 66.6551 22.8996C66.6551 35.3182 58.0683 40.4843 49.7836 40.4843C41.4989 40.4843 32.8869 35.3182 32.8869 22.8996ZM57.3632 22.8996C57.3632 16.6655 54.6184 12.8654 49.7836 12.8654C44.9488 12.8654 42.1537 16.6655 42.1537 22.8996C42.1537 29.1338 44.8984 33.1574 49.7836 33.1574C54.6688 33.1574 57.3632 29.1338 57.3632 22.8996Z" fill="#22C55E"/>
<path d="M71.4396 5.96094H95.9663V13.5611H80.7315V19.0501H91.6099V26.2032H80.7315V32.487H96.7469V39.8636H71.4396V5.96094Z" fill="#22C55E"/>
<path d="M110.848 5.81152H119.486L131.648 39.8632H122.256L120.166 33.5298H109.338L107.096 39.8632H98.6355L110.798 5.81152H110.848ZM118.101 27.0224L114.953 17.634H114.852L111.554 27.0224H118.101Z" fill="#22C55E"/>
<path d="M135.325 5.96094H144.617V32.487H159.071V39.8636H135.325V5.96094Z" fill="#22C55E"/>
<path d="M166.726 13.5611H156.83V5.96094H185.914V13.5611H176.018V39.8636H166.726V13.5611Z" fill="#22C55E"/>
<path d="M187.35 22.8996C187.35 10.4811 195.936 5.31494 204.246 5.31494C212.556 5.31494 221.118 10.4811 221.118 22.8996C221.118 35.3182 212.531 40.4843 204.246 40.4843C195.962 40.4843 187.35 35.3182 187.35 22.8996ZM211.826 22.8996C211.826 16.6655 209.081 12.8654 204.246 12.8654C199.411 12.8654 196.616 16.6655 196.616 22.8996C196.616 29.1338 199.361 33.1574 204.246 33.1574C209.131 33.1574 211.826 29.1338 211.826 22.8996Z" fill="#22C55E"/>
<path d="M19.1378 30.2765C18.8609 30.2765 18.5839 30.2765 18.2817 30.2765C18.2061 30.3758 18.0802 30.4007 17.9795 30.4255C17.7781 30.4752 17.6018 30.4007 17.4003 30.4255C17.2996 30.4255 17.2241 30.3758 17.1233 30.3013C16.9722 30.1026 17.0226 29.8542 16.9974 29.6059C16.9974 27.8176 16.9974 26.0293 16.9974 24.2411C16.9974 23.9182 16.9471 23.6201 16.6197 23.4463C16.4686 23.2724 16.4686 23.0737 16.4686 22.875C16.4686 22.4528 16.4686 22.0554 16.4183 21.6332C16.4938 21.3848 16.6953 21.4096 16.8967 21.4096C18.1558 21.2854 19.1127 20.6645 19.6918 19.5468C20.7495 17.4854 19.4148 15.0016 17.073 14.7036C16.8463 14.6788 16.6449 14.6539 16.5442 14.4056C16.4434 13.9585 16.4183 13.5114 16.5442 13.0395C16.6953 12.7663 16.9722 12.7911 17.2241 12.7663C18.609 12.6173 19.9688 12.3192 21.1775 11.599C21.3286 11.5244 21.4545 11.4996 21.6056 11.5493C22.4618 13.3872 22.9402 15.3245 23.0913 17.3363C23.2424 19.4723 22.9906 21.5586 22.5373 23.645C22.4114 23.8188 22.2352 23.7195 22.0841 23.6946C21.8071 23.6201 21.6308 23.6946 21.5301 23.9678C21.0013 25.5077 20.4221 27.0228 19.8933 28.5379C19.7422 28.9849 19.7422 29.0098 20.2206 29.0843C20.3466 29.0843 20.4725 29.1091 20.5228 29.283C20.5228 29.3327 20.4725 29.3823 20.4725 29.432C20.2458 30.0778 19.8177 30.3758 19.1127 30.2765H19.1378Z" fill="#BCC2C6"/>
<path d="M16.6701 13.0147C16.6701 13.4866 16.6701 13.9585 16.6701 14.4552C16.5945 14.6539 16.4434 14.6788 16.2672 14.7036C14.9074 14.9023 13.9505 15.5729 13.4469 16.8644C12.9432 18.1808 13.2202 19.373 14.1771 20.4161C14.7059 20.9874 15.3858 21.2854 16.1413 21.4345C16.2924 21.4593 16.4686 21.4345 16.519 21.6332C16.6701 21.7325 16.6701 21.8815 16.6701 22.0306C16.6701 22.5025 16.6701 22.9495 16.6701 23.4214C16.6701 23.4214 16.6701 23.4711 16.6449 23.4959C16.3175 23.6946 16.242 23.9679 16.242 24.3404C16.242 26.1038 16.242 27.8921 16.242 29.6556C16.242 29.8791 16.2924 30.1275 16.1413 30.351C16.0909 30.4007 16.0154 30.4255 15.9398 30.4503C15.688 30.4503 15.4614 30.5249 15.2096 30.4752C15.0836 30.4503 14.9577 30.4503 14.8822 30.351C14.5297 30.351 14.1771 30.351 13.8246 30.351C13.1699 30.351 13.0691 29.8046 12.8425 29.3823C12.8929 29.2085 13.044 29.2085 13.1699 29.1837C13.5224 29.134 13.5728 29.0843 13.4469 28.7366C13.1195 27.8176 12.7921 26.8986 12.4648 25.9548C12.2381 25.3339 12.0115 24.713 11.7849 24.1169C11.6338 23.7195 11.6338 23.7195 11.2057 23.794C11.0546 23.8188 10.9035 23.8933 10.8028 23.7195C10.4503 22.1051 10.2236 20.4658 10.1985 18.7769C10.1985 16.3925 10.6014 14.0827 11.6086 11.8722C11.659 11.7728 11.6842 11.6983 11.7345 11.599C11.936 11.4748 12.1122 11.599 12.2633 11.6983C13.472 12.3689 14.7815 12.667 16.1413 12.7911C16.3427 12.7911 16.5945 12.7911 16.6701 13.0395V13.0147Z" fill="#EBDEDD"/>
<path d="M16.6701 13.0143C15.8391 12.915 15.0081 12.8156 14.2023 12.6169C13.321 12.3934 12.49 12.0457 11.7345 11.5489C12.5655 9.78548 13.4972 8.09656 14.857 6.68084C16.1916 5.28996 17.1737 5.3148 18.5335 6.68084C19.4652 7.59981 20.1451 8.69265 20.7746 9.81032C21.102 10.3816 21.379 10.9777 21.6812 11.5489C20.1703 12.5424 18.458 12.8653 16.7204 13.0143H16.6701Z" fill="#00704A"/>
<path d="M20.548 29.3077C20.3466 29.3077 20.1703 29.3077 19.9689 29.3077C19.5911 29.3077 19.5156 29.2084 19.6415 28.8358C20.0444 27.743 20.4221 26.6253 20.825 25.5325C21.0265 24.9612 21.2531 24.3651 21.4546 23.7939C21.5553 23.4958 21.656 23.3716 21.9834 23.5207C22.1596 23.5952 22.3611 23.6449 22.5625 23.6945C23.1165 23.9181 23.6705 24.1664 24.149 24.5142C25.6095 25.4828 26.3397 26.8737 26.4657 28.5874C26.5664 29.8045 26.3397 30.9718 25.9368 32.1143C25.7606 32.6111 25.6095 32.7352 25.0555 32.7352C24.703 32.7352 24.3756 32.7352 24.0231 32.7352C23.6957 32.7352 23.5698 32.6111 23.5698 32.313C23.5698 31.9653 23.5194 31.6424 23.4187 31.3195C23.041 30.1522 22.1345 29.6058 20.9761 29.4071C20.825 29.3822 20.6739 29.3822 20.5228 29.3574L20.548 29.3077Z" fill="#00704A"/>
<path d="M10.8028 23.6694C11.105 23.5949 11.4575 23.3465 11.7094 23.4707C11.9612 23.5949 11.9612 24.0171 12.0619 24.3152C12.5907 25.7806 13.1195 27.2211 13.6483 28.6865C13.8498 29.2329 13.7994 29.3075 13.2202 29.3075C13.0943 29.3075 12.9684 29.3075 12.8425 29.3075C11.7597 29.4068 10.7776 29.7048 10.1733 30.6735C9.89629 31.1206 9.79556 31.5925 9.77038 32.114C9.77038 32.6605 9.69484 32.6853 9.16603 32.6853C8.81349 32.6853 8.48613 32.6853 8.13359 32.6853C7.83142 32.6853 7.5796 32.5611 7.47888 32.2631C6.7738 30.3506 6.52198 28.4133 7.42851 26.5009C8.05805 25.1348 9.21639 24.34 10.5762 23.7688C10.6517 23.7439 10.7525 23.6943 10.828 23.6694H10.8028Z" fill="#00704A"/>
<path d="M14.8822 30.2764C14.8822 30.2764 15.0836 30.2764 15.2096 30.2764C15.2851 30.4006 15.2599 30.5247 15.2096 30.6241C14.8318 31.1705 14.857 31.7666 14.9577 32.3627C15.1844 33.6045 15.688 34.7471 16.3679 35.815C16.5694 36.1379 16.6449 36.1379 16.8212 35.815C17.5514 34.5732 18.1558 33.2568 18.3069 31.8163C18.3572 31.4437 18.2565 31.096 18.0551 30.7731C17.9795 30.6241 17.8284 30.4751 17.9543 30.2764C18.0551 30.2764 18.1558 30.2764 18.2817 30.2764C19.4904 31.2202 19.5911 32.4869 19.3141 33.8529C18.8609 35.9889 17.904 37.9014 16.7456 39.7145C16.6197 39.938 16.5442 39.9132 16.4183 39.7145C15.1088 37.7523 14.0764 35.666 13.7742 33.3065C13.6231 32.1143 13.9001 31.0712 14.8822 30.3012V30.2764Z" fill="#E77E04"/>
<path d="M16.5442 21.5833C15.134 21.4839 14.0764 20.8133 13.4217 19.5466C12.3137 17.4106 13.9001 14.6289 16.2924 14.5047C16.4183 14.5047 16.5693 14.455 16.6953 14.4302C17.5262 14.5047 18.3069 14.7282 18.9616 15.2498C20.1703 16.2433 20.5732 17.7087 20.0696 19.2486C19.6415 20.5401 18.332 21.4839 16.8715 21.5584C16.7708 21.5584 16.6701 21.5584 16.5693 21.5584L16.5442 21.5833Z" fill="#00704A"/>
<path d="M17.9795 30.2762C18.8357 31.3442 18.4328 32.4371 18.1054 33.5299C17.8032 34.4489 17.3248 35.3182 16.8463 36.1378C16.6449 36.4607 16.5945 36.4855 16.3931 36.1626C15.5117 34.8214 14.857 33.3809 14.7059 31.7665C14.6556 31.1952 14.9074 30.7233 15.2347 30.2762C15.4614 30.2762 15.688 30.2762 15.9146 30.2762C15.965 30.3507 15.965 30.4253 15.9146 30.4998C15.5369 31.1704 15.7384 31.8161 15.9398 32.4619C16.0657 32.8345 16.2672 33.1573 16.4434 33.5051C16.5442 33.7038 16.6701 33.7534 16.8212 33.5051C17.2492 32.8096 17.5262 32.0645 17.627 31.2449C17.627 31.0214 17.5766 30.8227 17.4759 30.624C17.4003 30.4998 17.35 30.3756 17.4507 30.2266C17.627 30.2266 17.8032 30.2266 17.9795 30.2266V30.2762Z" fill="#F49C00"/>
<path d="M16.6701 23.3716C17.1233 23.4213 17.1989 23.5206 17.1989 23.9677C17.1989 26.0788 17.1989 28.1651 17.1989 30.2763C17.2241 30.326 17.1989 30.2763 17.1989 30.3011C17.4759 31.0463 17.3752 31.7914 17.2493 32.5116C17.1989 32.7849 16.9219 32.8345 16.5945 32.7103C16.4686 32.5613 16.4686 32.3875 16.4686 32.2136C16.4686 29.4318 16.4686 26.6749 16.4686 23.8932C16.4686 23.6945 16.4686 23.5206 16.6449 23.3716H16.6701Z" fill="#00704A"/>
<path d="M16.6701 32.6856C17.0478 32.7104 17.1989 32.5117 17.1989 32.164C17.1989 31.5431 17.1989 30.8973 17.1989 30.2764C17.2744 30.2764 17.35 30.2764 17.4255 30.2764C17.9291 30.8725 17.8284 31.5182 17.627 32.164C17.4507 32.7601 17.1737 33.3313 16.8212 33.8778C16.7456 33.9771 16.6701 34.1758 16.519 33.9771C16.0154 33.1823 15.5873 32.3627 15.5117 31.394C15.4865 30.9718 15.5873 30.5992 15.8895 30.2764C15.9398 30.2764 15.9902 30.2764 16.0405 30.2764C16.2168 30.3509 16.2168 30.5247 16.2168 30.6738C16.2168 31.0463 16.242 31.4189 16.2168 31.7666C16.1916 32.164 16.3175 32.4869 16.6701 32.6856Z" fill="#F1C400"/>
<path d="M16.6701 32.6852C16.1916 32.6852 16.0657 32.561 16.0405 32.114C16.0405 31.493 16.0405 30.8969 16.0405 30.276C16.0405 28.1897 16.0405 26.0785 16.0405 23.9922C16.0405 23.4955 16.1413 23.3961 16.6449 23.421C16.6449 26.5256 16.6449 29.6054 16.6449 32.7101L16.6701 32.6852Z" fill="#22C55E"/>
<path d="M18.735 16.0693C20.2207 17.4105 19.5911 20.0681 17.6522 20.7387C16.519 21.1361 15.2851 20.8629 14.6052 20.0681C14.6304 19.8943 14.7563 19.7701 14.8822 19.6707C16.0154 18.5531 17.1485 17.4602 18.2565 16.3425C18.3824 16.2184 18.5335 16.0693 18.735 16.0942V16.0693Z" fill="#33485E"/>
<path d="M18.735 16.0695C17.4507 17.3362 16.1665 18.6278 14.857 19.8944C14.7815 19.969 14.7059 20.0186 14.6052 20.0435C14.3786 19.8199 14.1519 19.5964 14.0512 19.2735C13.9505 19.0748 14.0512 18.9258 14.1771 18.8016C15.2599 17.7336 16.3427 16.6408 17.4507 15.5728C17.5514 15.4734 17.6773 15.4238 17.8284 15.3989C18.1558 15.5728 18.4831 15.7466 18.735 16.0447V16.0695Z" fill="#2B3E51"/>
<path d="M17.8284 15.4236C17.4507 15.8955 16.9974 16.2681 16.5945 16.6903C15.8391 17.4354 15.0836 18.1806 14.3282 18.9257C14.2275 19.025 14.1016 19.1244 14.0764 19.2982C13.8749 19.0002 13.7742 18.6773 13.7742 18.3296C13.8749 18.0564 14.026 17.8577 14.2527 17.659C14.9074 17.038 15.5369 16.3923 16.1916 15.7714C16.4183 15.5478 16.6449 15.374 16.9219 15.2498C17.2492 15.2249 17.5514 15.2994 17.8536 15.4733L17.8284 15.4236Z" fill="#33485E"/>
<path d="M16.8967 15.2C15.8895 16.2679 14.8318 17.2863 13.7742 18.3046C13.5476 16.6405 15.0585 14.9764 16.8967 15.2Z" fill="#2B3E51"/>
<path d="M32.9373 50.742C32.8869 50.1459 32.6603 49.674 32.2574 49.2766C31.8545 48.904 31.3005 48.7053 30.6206 48.7053C30.1673 48.7053 29.7896 48.7798 29.437 48.9537C29.0845 49.1276 28.8075 49.3511 28.6061 49.6491C28.4046 49.9472 28.3039 50.2701 28.3039 50.6675C28.3039 50.891 28.3291 51.0897 28.4046 51.2636C28.4802 51.4374 28.5809 51.6113 28.732 51.7603C28.8831 51.9093 29.0845 52.0584 29.3111 52.1825C29.5378 52.3067 29.8148 52.4061 30.1169 52.5054L31.099 52.8035C31.4767 52.9277 31.8041 53.0518 32.0811 53.2009C32.3581 53.3499 32.5847 53.4989 32.761 53.6728C32.9373 53.8466 33.0632 54.0453 33.1639 54.2689C33.2646 54.4924 33.2898 54.7408 33.2898 54.9891C33.2898 55.4362 33.1639 55.8336 32.9373 56.1813C32.7106 56.529 32.3833 56.8022 31.9552 57.0009C31.5271 57.1996 31.0487 57.299 30.4947 57.299C29.9407 57.299 29.4874 57.1996 29.1097 57.0258C28.7068 56.8519 28.4046 56.5787 28.1528 56.2558C27.9262 55.9329 27.8003 55.5604 27.7499 55.1382H28.0269C28.0521 55.5107 28.178 55.8336 28.3794 56.1316C28.5809 56.4049 28.8579 56.6284 29.2356 56.8022C29.5881 56.9513 30.0162 57.0506 30.4947 57.0506C30.9731 57.0506 31.4264 56.9761 31.8041 56.8022C32.1818 56.6284 32.484 56.38 32.6854 56.082C32.8869 55.7839 32.9876 55.4114 32.9876 55.014C32.9876 54.7159 32.9121 54.4427 32.7862 54.1943C32.6603 53.9708 32.4336 53.7473 32.1315 53.5734C31.8293 53.3996 31.4516 53.2257 30.9731 53.0767L29.991 52.7786C29.3111 52.5551 28.7823 52.2819 28.455 51.9342C28.1276 51.5864 27.9513 51.1642 27.9513 50.6675C27.9513 50.2452 28.0521 49.8727 28.2787 49.525C28.5053 49.1772 28.8075 48.9289 29.2104 48.7302C29.6133 48.5315 30.0414 48.4321 30.545 48.4321C31.0487 48.4321 31.4767 48.5315 31.8545 48.7302C32.2322 48.9289 32.5344 49.2021 32.761 49.5498C32.9876 49.8975 33.1135 50.2949 33.1387 50.742H32.8617H32.9373Z" fill="white"/>
<path d="M38.6031 57.3486C38.0743 57.3486 37.621 57.1996 37.2181 56.9015C36.8152 56.6035 36.4878 56.2061 36.236 55.7094C36.0094 55.2126 35.8835 54.6414 35.8835 53.9956C35.8835 53.3498 36.0094 52.7786 36.236 52.2818C36.4627 51.7851 36.79 51.3877 37.2181 51.0896C37.621 50.7916 38.0994 50.6426 38.6031 50.6426C39.1067 50.6426 39.5851 50.7916 39.9881 51.0896C40.391 51.3877 40.7183 51.7851 40.9701 52.2818C41.1968 52.7786 41.3227 53.3498 41.3227 53.9956C41.3227 54.6414 41.1968 55.2126 40.9701 55.7094C40.7435 56.2061 40.4161 56.6283 39.9881 56.9015C39.56 57.1747 39.1067 57.3486 38.6031 57.3486ZM38.6031 57.0754C39.0563 57.0754 39.4844 56.9512 39.8621 56.678C40.2399 56.4048 40.5169 56.0322 40.7435 55.5852C40.9701 55.1381 41.0708 54.5917 41.0708 54.0204C41.0708 53.4492 40.9701 52.9028 40.7435 52.4557C40.542 51.9838 40.2399 51.6112 39.8621 51.3629C39.4844 51.1145 39.0815 50.9655 38.6031 50.9655C38.1246 50.9655 37.7217 51.0896 37.344 51.3629C36.9663 51.6361 36.6893 52.0086 36.4627 52.4557C36.2612 52.9276 36.1353 53.4492 36.1353 54.0204C36.1353 54.5917 36.236 55.1381 36.4627 55.5852C36.6893 56.0322 36.9663 56.4296 37.344 56.678C37.7217 56.9512 38.1246 57.0754 38.6031 57.0754Z" fill="white"/>
<path d="M44.42 48.5811V57.1995H44.143V48.5811H44.42Z" fill="white"/>
<path d="M51.8485 55.0887V50.7422H52.1255V57.2247H51.8485V56.2064H51.8233C51.6722 56.5541 51.4204 56.8024 51.0679 57.026C50.7153 57.2247 50.3124 57.324 49.8591 57.324C49.4059 57.324 49.0282 57.2247 48.7008 57.0508C48.3734 56.8521 48.0965 56.6038 47.9202 56.2809C47.7187 55.958 47.6432 55.5606 47.6432 55.1384V50.7919H47.9202V55.1384C47.9202 55.7096 48.0965 56.1815 48.4742 56.5292C48.8519 56.877 49.3052 57.0757 49.8843 57.0757C50.2621 57.0757 50.6146 57.0011 50.9168 56.8273C51.2189 56.6534 51.4456 56.4299 51.6218 56.1318C51.7981 55.8338 51.8737 55.5109 51.8737 55.1384L51.8485 55.0887Z" fill="white"/>
<path d="M57.6906 57.3486C57.1617 57.3486 56.6833 57.1996 56.2804 56.9015C55.8523 56.6035 55.5501 56.2061 55.2983 55.7094C55.0717 55.2126 54.9458 54.6414 54.9458 53.9956C54.9458 53.3498 55.0717 52.8034 55.2983 52.2818C55.525 51.7602 55.8523 51.3629 56.2804 51.0896C56.6833 50.7916 57.1617 50.6426 57.6906 50.6426C58.0935 50.6426 58.446 50.7171 58.7734 50.891C59.1007 51.0648 59.3777 51.2883 59.6043 51.5864C59.831 51.8844 59.9821 52.2322 60.0324 52.6296H59.7302C59.6547 52.1328 59.4029 51.7106 59.0252 51.3877C58.6475 51.0648 58.1942 50.9158 57.6654 50.9158C57.1869 50.9158 56.784 51.04 56.4063 51.3132C56.0286 51.5864 55.7264 51.9589 55.525 52.406C55.2983 52.8779 55.1976 53.3995 55.1976 53.9956C55.1976 54.5917 55.2983 55.0884 55.4998 55.5603C55.7012 56.0322 56.0034 56.4048 56.3811 56.678C56.7588 56.9512 57.1869 57.1002 57.6654 57.1002C58.0179 57.1002 58.3453 57.0257 58.6223 56.8767C58.9244 56.7277 59.1511 56.529 59.3525 56.2558C59.554 55.9826 59.6799 55.6845 59.7302 55.3368H60.0324C59.9569 55.7342 59.831 56.1067 59.6043 56.4048C59.3777 56.7028 59.1007 56.9512 58.7734 57.1002C58.446 57.2741 58.0683 57.3486 57.6654 57.3486H57.6906ZM57.4891 57.1747H57.7661L57.7157 57.5225C58.0179 57.5721 58.2194 57.6715 58.3705 57.8454C58.5215 58.0192 58.5971 58.2427 58.5971 58.4911C58.5971 58.7892 58.4964 59.0127 58.2949 59.1617C58.0935 59.3107 57.8165 59.3853 57.4387 59.3853V59.112C57.7409 59.112 57.9676 59.0375 58.1186 58.9382C58.2445 58.8388 58.3201 58.6898 58.3201 58.4911C58.3201 58.2427 58.2445 58.0689 58.0683 57.9447C57.892 57.8205 57.6654 57.7708 57.3632 57.7708L57.4891 57.1747Z" fill="white"/>
<path d="M65.1694 57.3488C64.6406 57.3488 64.1874 57.1998 63.7845 56.9018C63.3816 56.6037 63.0542 56.2063 62.8024 55.7096C62.5758 55.2128 62.4498 54.6416 62.4498 53.9958C62.4498 53.35 62.5758 52.7788 62.8024 52.282C63.029 51.7853 63.3564 51.3879 63.7845 51.0899C64.1874 50.7918 64.6658 50.6428 65.1694 50.6428C65.6731 50.6428 66.1515 50.7918 66.5544 51.0899C66.9573 51.3879 67.2847 51.7853 67.5365 52.282C67.7631 52.7788 67.889 53.35 67.889 53.9958C67.889 54.6416 67.7631 55.2128 67.5365 55.7096C67.3099 56.2063 66.9825 56.6285 66.5544 56.9018C66.1263 57.175 65.6731 57.3488 65.1694 57.3488ZM65.1694 57.0756C65.6227 57.0756 66.0508 56.9514 66.4285 56.6782C66.8062 56.405 67.0832 56.0325 67.3099 55.5854C67.5365 55.1383 67.6372 54.5919 67.6372 54.0206C67.6372 53.4494 67.5365 52.903 67.3099 52.4559C67.1084 51.984 66.8062 51.6114 66.4285 51.3631C66.0508 51.1147 65.6479 50.9657 65.1694 50.9657C64.691 50.9657 64.2881 51.0899 63.9104 51.3631C63.5326 51.6363 63.2557 52.0088 63.029 52.4559C62.8276 52.9278 62.7017 53.4494 62.7017 54.0206C62.7017 54.5919 62.8024 55.1383 63.029 55.5854C63.2557 56.0325 63.5326 56.4298 63.9104 56.6782C64.2881 56.9514 64.691 57.0756 65.1694 57.0756ZM63.4823 49.5996H63.2053C63.2557 49.3016 63.3816 49.0781 63.583 48.929C63.7845 48.7552 64.0363 48.6807 64.3384 48.6807C64.5399 48.6807 64.7162 48.7055 64.8421 48.78C64.9932 48.8545 65.1191 48.929 65.245 49.0284C65.3709 49.1277 65.4716 49.2022 65.5975 49.2768C65.7234 49.3513 65.8493 49.3761 66.0256 49.3761C66.2271 49.3761 66.4033 49.3264 66.5544 49.2022C66.7307 49.0781 66.8314 48.929 66.8818 48.7303L67.1588 48.8048C67.0832 49.0532 66.9573 49.2768 66.7307 49.4258C66.5292 49.5748 66.2774 49.6741 66.0256 49.6741C65.8493 49.6741 65.6982 49.6493 65.5472 49.5748C65.4213 49.5003 65.2953 49.4258 65.1694 49.3264C65.0435 49.2271 64.9428 49.1526 64.7917 49.0781C64.6658 49.0035 64.5147 48.9787 64.3133 48.9787C64.0866 48.9787 63.9104 49.0284 63.7341 49.1526C63.5578 49.2768 63.4823 49.4258 63.4571 49.6245L63.4823 49.5996Z" fill="white"/>
<path d="M73.1519 57.3486C72.5728 57.3486 72.0691 57.1996 71.641 56.9015C71.213 56.6035 70.8856 56.2061 70.6338 55.7094C70.382 55.2126 70.2812 54.6414 70.2812 53.9956C70.2812 53.3498 70.4072 52.7786 70.6338 52.2818C70.8604 51.7851 71.1878 51.3877 71.6159 51.0896C72.0188 50.7916 72.4972 50.6426 73.0008 50.6426C73.3786 50.6426 73.7311 50.7171 74.0585 50.891C74.3858 51.04 74.6628 51.2635 74.9146 51.5616C75.1664 51.8596 75.3427 52.1825 75.4686 52.5302C75.5945 52.8779 75.6701 53.3002 75.6701 53.7224V53.9956H70.4072V53.7224H75.3931C75.3931 53.2008 75.2923 52.7289 75.0657 52.3067C74.8391 51.8844 74.5621 51.5367 74.1844 51.2883C73.8318 51.04 73.4037 50.9158 72.9757 50.9158C72.5476 50.9158 72.1195 51.04 71.7418 51.3132C71.3892 51.5864 71.0871 51.9341 70.8604 52.3812C70.6338 52.8282 70.5331 53.3498 70.5079 53.9211C70.5079 54.5172 70.6086 55.0388 70.8101 55.5107C71.0115 55.9826 71.3137 56.3551 71.6914 56.6532C72.0691 56.9264 72.5476 57.0754 73.1016 57.0754C73.5045 57.0754 73.857 57.0009 74.134 56.8767C74.411 56.7277 74.6376 56.5787 74.7887 56.38C74.9398 56.1813 75.0909 56.0322 75.1664 55.9081L75.3931 56.0571C75.2923 56.2309 75.1413 56.4048 74.965 56.6035C74.7635 56.8022 74.5369 56.976 74.2347 57.1251C73.9326 57.2741 73.58 57.3486 73.1519 57.3486Z" fill="white"/>
<path d="M82.4439 52.108L82.1669 52.1825C82.0661 51.9093 81.9654 51.6609 81.7891 51.487C81.6381 51.2883 81.4366 51.1642 81.21 51.0648C80.9833 50.9655 80.7063 50.9158 80.4042 50.9158C79.8754 50.9158 79.4473 51.04 79.1199 51.3132C78.7926 51.5864 78.6415 51.9341 78.6415 52.3563C78.6415 52.7041 78.7422 52.9773 78.9688 53.2008C79.1955 53.4243 79.5228 53.5982 79.9761 53.7224L81.0085 53.9708C81.487 54.0949 81.8647 54.2936 82.1165 54.5668C82.3683 54.8401 82.4942 55.1878 82.4942 55.5852C82.4942 55.9329 82.3935 56.2558 82.2172 56.5041C82.041 56.7774 81.764 56.976 81.4366 57.1251C81.1093 57.2741 80.7315 57.3486 80.3034 57.3486C79.7243 57.3486 79.2458 57.1996 78.8681 56.9264C78.4904 56.6532 78.2638 56.2558 78.1378 55.7342L78.4148 55.6597C78.5156 56.1067 78.717 56.4793 79.0444 56.7028C79.3717 56.9512 79.7746 57.0754 80.3034 57.0754C80.8826 57.0754 81.3359 56.9264 81.6884 56.6532C82.041 56.38 82.2172 56.0074 82.2172 55.5603C82.2172 55.2375 82.1165 54.9394 81.8899 54.7159C81.6632 54.4923 81.3611 54.3185 80.933 54.2191L79.9005 53.9708C79.3969 53.8466 79.0192 53.6479 78.7422 53.3747C78.4904 53.1015 78.3393 52.7537 78.3393 52.3563C78.3393 52.0086 78.4148 51.7106 78.5911 51.4622C78.7674 51.2138 78.994 51.0151 79.3214 50.8661C79.6235 50.7171 79.9761 50.6426 80.379 50.6426C80.8826 50.6426 81.3107 50.7668 81.6381 51.0151C81.9654 51.2635 82.2172 51.6361 82.3935 52.108H82.4439Z" fill="white"/>
<path d="M91.1818 57.1995L88.7644 48.5811H89.0666L91.3581 56.7773H91.3833L93.5992 48.5811H93.977L96.1929 56.7773H96.2181L98.5096 48.5811H98.8118L96.3944 57.1995H96.0166L93.8007 49.0033H93.7755L91.5595 57.1995H91.1818Z" fill="white"/>
<path d="M103.042 57.3486C102.463 57.3486 101.959 57.1996 101.531 56.9015C101.103 56.6035 100.776 56.2061 100.524 55.7094C100.272 55.2126 100.172 54.6414 100.172 53.9956C100.172 53.3498 100.297 52.7786 100.524 52.2818C100.751 51.7851 101.078 51.3877 101.506 51.0896C101.909 50.7916 102.388 50.6426 102.891 50.6426C103.269 50.6426 103.621 50.7171 103.949 50.891C104.276 51.04 104.553 51.2635 104.805 51.5616C105.057 51.8596 105.233 52.1825 105.359 52.5302C105.485 52.8779 105.56 53.3002 105.56 53.7224V53.9956H100.297V53.7224H105.283C105.283 53.2008 105.183 52.7289 104.956 52.3067C104.729 51.8844 104.452 51.5367 104.075 51.2883C103.722 51.04 103.294 50.9158 102.866 50.9158C102.438 50.9158 102.01 51.04 101.632 51.3132C101.28 51.5864 100.977 51.9341 100.751 52.3812C100.524 52.8282 100.423 53.3498 100.398 53.9211C100.398 54.5172 100.499 55.0388 100.7 55.5107C100.902 55.9826 101.204 56.3551 101.582 56.6532C101.959 56.9264 102.438 57.0754 102.992 57.0754C103.395 57.0754 103.747 57.0009 104.024 56.8767C104.301 56.7277 104.528 56.5787 104.679 56.38C104.83 56.1813 104.981 56.0322 105.057 55.9081L105.283 56.0571C105.183 56.2309 105.032 56.4048 104.855 56.6035C104.654 56.8022 104.427 56.976 104.125 57.1251C103.823 57.2741 103.47 57.3486 103.042 57.3486Z" fill="white"/>
<path d="M108.607 57.1995V48.5811H108.884V52.3811H108.91C109.01 52.0334 109.187 51.7105 109.413 51.4373C109.64 51.1641 109.892 50.9654 110.169 50.8412C110.471 50.6922 110.773 50.6177 111.125 50.6177C111.629 50.6177 112.082 50.7667 112.46 51.0648C112.838 51.3628 113.14 51.7602 113.341 52.257C113.543 52.7537 113.644 53.3249 113.644 53.9707C113.644 54.6165 113.543 55.1877 113.341 55.6845C113.14 56.1812 112.838 56.5786 112.46 56.8767C112.082 57.1747 111.629 57.3237 111.125 57.3237C110.773 57.3237 110.446 57.2492 110.169 57.1002C109.866 56.9512 109.615 56.7525 109.413 56.4793C109.212 56.2061 109.035 55.908 108.91 55.5603H108.884V57.1747H108.607V57.1995ZM108.884 53.9956C108.884 54.5916 108.985 55.1132 109.161 55.5603C109.338 56.0322 109.615 56.4048 109.942 56.6531C110.269 56.9263 110.672 57.0505 111.151 57.0505C111.629 57.0505 112.007 56.9263 112.359 56.6531C112.687 56.3799 112.964 56.0074 113.14 55.5603C113.316 55.0884 113.417 54.5668 113.417 53.9956C113.417 53.4243 113.316 52.8779 113.14 52.4308C112.964 51.9589 112.687 51.5863 112.359 51.338C112.032 51.0648 111.629 50.9406 111.151 50.9406C110.672 50.9406 110.294 51.0648 109.942 51.338C109.589 51.6112 109.338 51.9837 109.161 52.4308C108.985 52.9027 108.884 53.4243 108.884 53.9956Z" fill="white"/>
<path d="M121.223 48.5811V57.1995H120.946V48.5811H121.223Z" fill="white"/>
<path d="M124.9 52.853V57.1995H124.623V50.717H124.9V51.7353H124.925C125.076 51.3876 125.328 51.1393 125.68 50.9157C126.033 50.717 126.436 50.6177 126.889 50.6177C127.342 50.6177 127.72 50.717 128.047 50.8909C128.375 51.0896 128.652 51.338 128.828 51.6608C129.029 51.9837 129.105 52.3811 129.105 52.8033V57.1498H128.828V52.8033C128.828 52.2321 128.652 51.7602 128.274 51.4125C127.896 51.0647 127.443 50.866 126.864 50.866C126.486 50.866 126.134 50.9406 125.831 51.1144C125.529 51.2883 125.303 51.5118 125.126 51.8099C124.95 52.1079 124.874 52.4308 124.874 52.8033L124.9 52.853Z" fill="white"/>
<path d="M134.393 50.742V51.0152H131.799V50.742H134.393ZM132.731 49.1772H133.008V55.8336C133.008 56.082 133.058 56.3055 133.184 56.4794C133.31 56.6532 133.461 56.8022 133.638 56.9016C133.839 57.0009 134.041 57.0506 134.242 57.0506C134.318 57.0506 134.393 57.0506 134.469 57.0506C134.544 57.0506 134.62 57.0258 134.695 56.9761L134.771 57.2245C134.771 57.2245 134.595 57.2742 134.519 57.299C134.443 57.299 134.343 57.3238 134.242 57.3238C133.965 57.3238 133.713 57.2742 133.487 57.15C133.26 57.0258 133.084 56.8519 132.933 56.6284C132.781 56.4049 132.731 56.1316 132.731 55.8336V49.1772Z" fill="white"/>
<path d="M139.782 57.3486C139.203 57.3486 138.699 57.1996 138.271 56.9015C137.843 56.6035 137.516 56.2061 137.264 55.7094C137.012 55.2126 136.911 54.6414 136.911 53.9956C136.911 53.3498 137.037 52.7786 137.264 52.2818C137.49 51.7851 137.818 51.3877 138.246 51.0896C138.649 50.7916 139.127 50.6426 139.631 50.6426C140.009 50.6426 140.361 50.7171 140.688 50.891C141.016 51.04 141.293 51.2635 141.545 51.5616C141.796 51.8596 141.973 52.1825 142.099 52.5302C142.224 52.8779 142.3 53.3002 142.3 53.7224V53.9956H137.037V53.7224H142.023C142.023 53.2008 141.922 52.7289 141.696 52.3067C141.469 51.8844 141.192 51.5367 140.814 51.2883C140.462 51.04 140.034 50.9158 139.606 50.9158C139.178 50.9158 138.749 51.04 138.372 51.3132C138.019 51.5864 137.717 51.9341 137.49 52.3812C137.264 52.8282 137.163 53.3498 137.138 53.9211C137.138 54.5172 137.239 55.0388 137.44 55.5107C137.641 55.9826 137.944 56.3551 138.321 56.6532C138.699 56.9264 139.178 57.0754 139.732 57.0754C140.134 57.0754 140.487 57.0009 140.764 56.8767C141.041 56.7277 141.268 56.5787 141.419 56.38C141.57 56.1813 141.721 56.0322 141.796 55.9081L142.023 56.0571C141.922 56.2309 141.771 56.4048 141.595 56.6035C141.393 56.8022 141.167 56.976 140.865 57.1251C140.562 57.2741 140.21 57.3486 139.782 57.3486Z" fill="white"/>
<path d="M145.423 48.5811V57.1995H145.146V48.5811H145.423Z" fill="white"/>
<path d="M148.797 49.5498C148.797 49.5498 148.671 49.525 148.595 49.4753C148.52 49.4257 148.52 49.3511 148.52 49.2766C148.52 49.2021 148.545 49.1524 148.595 49.0779C148.646 49.0034 148.721 49.0034 148.797 49.0034C148.872 49.0034 148.923 49.0283 148.998 49.0779C149.074 49.1276 149.074 49.2021 149.074 49.2766C149.074 49.3511 149.049 49.4008 148.998 49.4753C148.948 49.5498 148.872 49.5498 148.797 49.5498ZM148.646 57.1997V50.7172H148.923V57.1997H148.646Z" fill="white"/>
<path d="M154.387 59.7826C154.009 59.7826 153.682 59.733 153.38 59.6336C153.078 59.5343 152.801 59.3853 152.574 59.2114C152.347 59.0127 152.171 58.7892 152.07 58.4911L152.322 58.3918C152.423 58.6401 152.574 58.8637 152.775 59.0127C152.977 59.1866 153.204 59.3107 153.481 59.3853C153.758 59.4598 154.06 59.5094 154.387 59.5094C155.067 59.5094 155.596 59.3356 155.974 58.9879C156.351 58.6401 156.553 58.0937 156.553 57.3734V55.61H156.528C156.402 55.9826 156.251 56.2806 156.024 56.5041C155.797 56.7525 155.545 56.9264 155.243 57.0506C154.941 57.1747 154.639 57.2244 154.312 57.2244C153.808 57.2244 153.355 57.1002 152.977 56.827C152.599 56.5538 152.297 56.1813 152.096 55.6845C151.894 55.2126 151.793 54.6414 151.793 53.9956C151.793 53.3498 151.894 52.7786 152.096 52.2818C152.297 51.7851 152.599 51.3877 152.977 51.0896C153.355 50.7916 153.808 50.6426 154.312 50.6426C154.664 50.6426 154.991 50.7171 155.268 50.8661C155.545 51.0151 155.797 51.2138 156.024 51.4622C156.251 51.7106 156.402 52.0335 156.528 52.406H156.553V50.7419H156.83V57.3486C156.83 57.8702 156.729 58.3173 156.528 58.6898C156.326 59.0624 156.049 59.3107 155.697 59.5094C155.319 59.6833 154.891 59.7826 154.387 59.7826ZM154.312 56.9512C154.765 56.9512 155.168 56.827 155.495 56.6035C155.822 56.3551 156.099 56.0322 156.276 55.5852C156.452 55.1381 156.553 54.6165 156.553 54.0204C156.553 53.4243 156.452 52.9028 156.276 52.4557C156.099 51.9838 155.848 51.6112 155.495 51.3629C155.168 51.0896 154.765 50.9655 154.286 50.9655C153.808 50.9655 153.43 51.0896 153.078 51.3629C152.725 51.6361 152.473 52.0086 152.297 52.4557C152.121 52.9276 152.02 53.4492 152.02 54.0204C152.02 54.5917 152.121 55.1133 152.297 55.5603C152.473 56.0074 152.75 56.3551 153.078 56.6035C153.405 56.8519 153.808 56.9761 154.286 56.9761L154.312 56.9512Z" fill="white"/>
<path d="M162.521 57.3486C161.942 57.3486 161.438 57.1996 161.01 56.9015C160.582 56.6035 160.254 56.2061 160.003 55.7094C159.751 55.2126 159.65 54.6414 159.65 53.9956C159.65 53.3498 159.776 52.7786 160.003 52.2818C160.229 51.7851 160.557 51.3877 160.985 51.0896C161.388 50.7916 161.866 50.6426 162.37 50.6426C162.747 50.6426 163.1 50.7171 163.427 50.891C163.755 51.04 164.032 51.2635 164.283 51.5616C164.535 51.8596 164.711 52.1825 164.837 52.5302C164.963 52.8779 165.039 53.3002 165.039 53.7224V53.9956H159.776V53.7224H164.762C164.762 53.2008 164.661 52.7289 164.434 52.3067C164.208 51.8844 163.931 51.5367 163.553 51.2883C163.201 51.04 162.773 50.9158 162.344 50.9158C161.916 50.9158 161.488 51.04 161.111 51.3132C160.758 51.5864 160.456 51.9341 160.229 52.3812C160.003 52.8282 159.902 53.3498 159.877 53.9211C159.877 54.5172 159.977 55.0388 160.179 55.5107C160.38 55.9826 160.682 56.3551 161.06 56.6532C161.438 56.9264 161.916 57.0754 162.47 57.0754C162.873 57.0754 163.226 57.0009 163.503 56.8767C163.78 56.7277 164.006 56.5787 164.157 56.38C164.309 56.1813 164.46 56.0322 164.535 55.9081L164.762 56.0571C164.661 56.2309 164.51 56.4048 164.334 56.6035C164.132 56.8022 163.906 56.976 163.604 57.1251C163.301 57.2741 162.949 57.3486 162.521 57.3486Z" fill="white"/>
<path d="M168.161 52.853V57.1995H167.884V50.717H168.161V51.7353H168.187C168.338 51.3876 168.589 51.1393 168.942 50.9157C169.294 50.717 169.697 50.6177 170.151 50.6177C170.604 50.6177 170.982 50.717 171.309 50.8909C171.636 51.0896 171.913 51.338 172.09 51.6608C172.291 51.9837 172.367 52.3811 172.367 52.8033V57.1498H172.09V52.8033C172.09 52.2321 171.913 51.7602 171.536 51.4125C171.158 51.0647 170.705 50.866 170.125 50.866C169.748 50.866 169.395 50.9406 169.093 51.1144C168.791 51.2883 168.564 51.5118 168.388 51.8099C168.212 52.1079 168.136 52.4308 168.136 52.8033L168.161 52.853Z" fill="white"/>
<path d="M177.655 50.742V51.0152H175.061V50.742H177.655ZM176.018 49.1772H176.295V55.8336C176.295 56.082 176.345 56.3055 176.471 56.4794C176.597 56.6532 176.748 56.8022 176.924 56.9016C177.126 57.0009 177.327 57.0506 177.529 57.0506C177.604 57.0506 177.68 57.0506 177.755 57.0506C177.831 57.0506 177.907 57.0258 177.982 56.9761L178.058 57.2245C178.058 57.2245 177.881 57.2742 177.806 57.299C177.73 57.299 177.63 57.3238 177.529 57.3238C177.252 57.3238 177 57.2742 176.773 57.15C176.547 57.0258 176.37 56.8519 176.219 56.6284C176.068 56.4049 176.018 56.1316 176.018 55.8336V49.1772Z" fill="white"/>
<path d="M183.044 57.3486C182.464 57.3486 181.961 57.1996 181.533 56.9015C181.105 56.6035 180.777 56.2061 180.525 55.7094C180.274 55.2126 180.173 54.6414 180.173 53.9956C180.173 53.3498 180.299 52.7786 180.525 52.2818C180.752 51.7851 181.079 51.3877 181.507 51.0896C181.91 50.7916 182.389 50.6426 182.892 50.6426C183.27 50.6426 183.623 50.7171 183.95 50.891C184.277 51.04 184.554 51.2635 184.806 51.5616C185.058 51.8596 185.234 52.1825 185.36 52.5302C185.486 52.8779 185.562 53.3002 185.562 53.7224V53.9956H180.299V53.7224H185.285C185.285 53.2008 185.184 52.7289 184.957 52.3067C184.731 51.8844 184.454 51.5367 184.076 51.2883C183.723 51.04 183.295 50.9158 182.867 50.9158C182.439 50.9158 182.011 51.04 181.633 51.3132C181.281 51.5864 180.979 51.9341 180.752 52.3812C180.525 52.8282 180.425 53.3498 180.399 53.9211C180.399 54.5172 180.5 55.0388 180.702 55.5107C180.903 55.9826 181.205 56.3551 181.583 56.6532C181.961 56.9264 182.439 57.0754 182.993 57.0754C183.396 57.0754 183.749 57.0009 184.026 56.8767C184.303 56.7277 184.529 56.5787 184.68 56.38C184.831 56.1813 184.982 56.0322 185.058 55.9081L185.285 56.0571C185.184 56.2309 185.033 56.4048 184.857 56.6035C184.655 56.8022 184.429 56.976 184.126 57.1251C183.824 57.2741 183.472 57.3486 183.044 57.3486Z" fill="white"/>
<path d="M192.335 52.108L192.058 52.1825C191.958 51.9093 191.857 51.6609 191.681 51.487C191.53 51.2883 191.328 51.1642 191.102 51.0648C190.875 50.9655 190.598 50.9158 190.296 50.9158C189.767 50.9158 189.339 51.04 189.011 51.3132C188.684 51.5864 188.533 51.9341 188.533 52.3563C188.533 52.7041 188.634 52.9773 188.86 53.2008C189.087 53.4243 189.414 53.5982 189.868 53.7224L190.9 53.9708C191.379 54.0949 191.756 54.2936 192.008 54.5668C192.26 54.8401 192.386 55.1878 192.386 55.5852C192.386 55.9329 192.285 56.2558 192.109 56.5041C191.933 56.7774 191.656 56.976 191.328 57.1251C191.001 57.2741 190.623 57.3486 190.195 57.3486C189.616 57.3486 189.137 57.1996 188.76 56.9264C188.382 56.6532 188.155 56.2558 188.029 55.7342L188.306 55.6597C188.407 56.1067 188.609 56.4793 188.936 56.7028C189.263 56.9512 189.666 57.0754 190.195 57.0754C190.774 57.0754 191.227 56.9264 191.58 56.6532C191.933 56.38 192.109 56.0074 192.109 55.5603C192.109 55.2375 192.008 54.9394 191.781 54.7159C191.555 54.4923 191.253 54.3185 190.825 54.2191L189.792 53.9708C189.289 53.8466 188.911 53.6479 188.634 53.3747C188.382 53.1015 188.231 52.7537 188.231 52.3563C188.231 52.0086 188.306 51.7106 188.483 51.4622C188.659 51.2138 188.886 51.0151 189.213 50.8661C189.515 50.7171 189.868 50.6426 190.271 50.6426C190.774 50.6426 191.202 50.7668 191.53 51.0151C191.857 51.2635 192.109 51.6361 192.285 52.108H192.335Z" fill="white"/>
</svg>
