<?xml version="1.0" encoding="UTF-8"?><svg id="Camada_2" xmlns="http://www.w3.org/2000/svg" xmlns:xlink="http://www.w3.org/1999/xlink" viewBox="0 0 486.11 504.28"><defs><style>.cls-1{fill:#00704a;}.cls-1,.cls-2,.cls-3{stroke-width:0px;}.cls-2{fill:none;}.cls-4{fill:#000;stroke:#fff;stroke-width:7.09px;}.cls-4,.cls-5{stroke-miterlimit:10;}.cls-6{clip-path:url(#clippath);}.cls-3,.cls-5{fill:#fff;}.cls-5{stroke:#00704a;stroke-width:5.31px;}</style><clipPath id="clippath"><circle class="cls-2" cx="247.75" cy="263" r="136.31"/></clipPath></defs><g id="Logo_1"><circle class="cls-5" cx="243.05" cy="261.22" r="240.4"/><circle class="cls-1" cx="243.93" cy="263" r="221.8"/><path class="cls-3" d="M82.03,135.24l9.47-8.74,27.74,16.14.09-.09-13.49-29.29,8.72-8.04,20.32,45.71-8.9,8.22-43.94-23.92Z"/><path class="cls-3" d="M131.57,121.66c-8.31-15.15-1.43-27.14,8.58-32.63,9.95-5.46,23.76-4.81,32.07,10.34s1.43,27.14-8.52,32.6c-10.01,5.49-23.81,4.84-32.12-10.31ZM161.03,105.51c-4.17-7.6-10.01-10.43-15.83-7.25-5.87,3.22-6.62,9.67-2.46,17.27s10.17,10.71,16.04,7.5c5.81-3.19,6.42-9.92,2.25-17.52Z"/><path class="cls-3" d="M173.7,74.53l32.59-8.44,2.65,10.25-20.25,5.25,1.92,7.41,14.44-3.74,2.49,9.63-14.44,3.74,2.19,8.46,21.29-5.52,2.57,9.94-33.64,8.71-11.83-45.67Z"/><path class="cls-3" d="M251.72,63.55l11.83.8,13.49,48.4-12.85-.87-2.27-8.97-14.83-1-3.65,8.58-11.58-.78,19.86-46.15ZM259.66,93.68l-3.45-13.33h-.13s-5.4,12.73-5.4,12.73l8.97.6Z"/><path class="cls-3" d="M291.19,68.59l12.2,3.7-10.72,35.33,18.98,5.76-2.98,9.82-31.18-9.46,13.7-45.16Z"/><path class="cls-3" d="M331.56,94.4l-12.03-6.31,4.92-9.37,35.34,18.55-4.92,9.37-12.03-6.31-17.01,32.41-11.29-5.93,17.01-32.41Z"/><path class="cls-3" d="M351.56,119.57c11.46-12.93,25.07-10.51,33.61-2.94,8.5,7.53,12.55,20.74,1.09,33.68-11.46,12.93-25.07,10.51-33.56,2.98-8.54-7.57-12.6-20.78-1.14-33.72ZM376.71,141.86c5.75-6.49,6.44-12.95,1.48-17.34-5.01-4.44-11.34-2.97-17.09,3.52-5.75,6.49-6.66,13.19-1.64,17.62,4.96,4.4,11.5,2.69,17.25-3.8Z"/><path class="cls-3" d="M93.99,355.82l9.89,8.15-8.69,16.88c-1.35,2.85-2.36,5.08-4.62,8.83l.1.08c3.12-2.88,5.15-4.35,7.64-6.27l14.84-11.9,8.91,7.33-8.63,17.1c-1.58,3.32-2.16,4.83-4.5,8.77l.1.08c3.32-3.13,4.48-3.83,7.42-6.2l14.86-12.13,9.01,7.42-39.44,28.65-8.22-6.77,13.79-26.88-.1-.08-24.28,18.25-8.37-6.89,20.29-44.41Z"/><path class="cls-3" d="M141.21,392.65l30.21,14.86-4.67,9.5-18.77-9.23-3.38,6.87,13.39,6.58-4.39,8.93-13.39-6.58-3.86,7.84,19.74,9.71-4.53,9.21-31.18-15.33,20.82-42.34Z"/><path class="cls-3" d="M174.09,408.62l19.17,5.08c7.58,2.01,16.27,5.56,13.61,15.61-1.75,6.6-6.6,8.48-11.39,8.13l-.03.12c5.29,2.46,8.78,6.22,6.77,13.8-2.63,9.92-12.59,10.19-20.3,8.15l-19.91-5.27,12.08-45.62ZM182.7,449.83c4.62,1.22,7.07-.04,7.9-3.18.83-3.14-.78-5.29-5.46-6.53l-6.04-1.6-2.56,9.68,6.17,1.63ZM187.21,431.56c4.44,1.18,6.56-.11,7.26-2.76.72-2.71-.51-4.82-4.82-5.96l-5.98-1.58-2.32,8.75,5.86,1.55Z"/><path class="cls-3" d="M211.25,440.99l17.57,1.82-.84,8.12-17.57-1.82.84-8.12Z"/><path class="cls-3" d="M233.71,457.53l9.14-6.32c3.02,4.39,7.8,6.77,12.7,6.54,3.88-.19,6.76-1.48,6.62-4.41-.15-2.99-3.96-3.96-8.66-4.88-7.8-1.6-18.15-3.08-18.67-13.78-.47-9.62,6.54-15.25,17.24-15.77,10-.48,16.21,3.88,20.19,8.28l-8.2,7.42c-2.77-3.06-7.48-5.58-11.56-5.38-3.63.18-5.42,1.47-5.31,3.7.15,3.12,3.9,4.09,8.61,5.01,7.8,1.47,18.23,3.33,18.74,13.9.36,7.52-4.56,15.22-19.08,15.93-10.76.52-17.43-4.01-21.75-10.25Z"/><path class="cls-3" d="M276.45,417.3l12.5-2.54,9.38,46.25-12.5,2.54-9.38-46.25Z"/><path class="cls-3" d="M307.97,420.4l-12.78,4.61-3.59-9.96,37.55-13.55,3.59,9.96-12.78,4.61,12.43,34.43-12,4.33-12.43-34.43Z"/><path class="cls-3" d="M330.02,400.7l28.96-17.16,5.4,9.11-17.99,10.66,3.9,6.58,12.84-7.6,5.07,8.56-12.84,7.61,4.45,7.52,18.92-11.21,5.23,8.83-29.9,17.71-24.05-40.59Z"/><path class="cls-3" d="M383.4,411.45l3.16-10.65c5.1,1.52,10.32.39,13.99-2.87,2.91-2.58,4.34-5.39,2.39-7.58-1.99-2.24-5.57-.6-9.81,1.63-7.08,3.65-16.07,8.98-23.19.97-6.39-7.2-4.47-15.99,3.54-23.1,7.49-6.65,15.06-7.15,20.92-6.21l-1.73,10.92c-4.07-.65-9.33.35-12.38,3.06-2.72,2.41-3.3,4.55-1.81,6.22,2.07,2.34,5.6.74,9.85-1.49,7-3.74,16.29-8.84,23.32-.92,5,5.63,5.99,14.72-4.88,24.37-8.06,7.16-16.09,7.81-23.37,5.66Z"/><circle class="cls-4" cx="243.93" cy="263" r="136.31"/><g id="Thor"><g class="cls-6"><path class="cls-3" d="M219.06,348.79c-2.59,3.07-6.26,3.86-10.01,4.29-5.13.6-10.27,1.34-15.41,1.4-5.29.06-7.53-1.52-8.65-6.69-1.49-6.87-2.25-13.9-3.1-20.89-.34-2.79-.66-3.26-3.12-1.85-2.93,1.69-5.68,3.71-8.62,5.4-3.08,1.78-6.29,1.95-9.36-.13-4.48-3.04-4.38-7.1.88-9.93-2.41-1.01-4.39-1.88-6.39-2.68-6.19-2.48-6.42-3.35-2.77-8.81,1.23-1.84,2.16-3.91,3.05-5.95.66-1.5.07-2.51-1.61-3-6.95-2.03-11.52-6.24-12.65-13.71-.1-.63-1.35-1.54-2.06-1.54-1.83,0-3.72.28-5.49.76-4.14,1.13-5.01.67-5.57-3.56-.57-4.33-.99-8.68-1.65-13-.1-.62-1.11-1.39-1.82-1.57-2.77-.7-5.65-.95-8.36-1.8-3.7-1.16-5.06-3.18-4.69-7,.36-3.73,1.02-7.45,1.73-11.13.39-2.02-.23-2.91-2.23-2.91-2.5.01-4.99.06-7.49.07-2.41.01-3.77-1.16-4.31-3.55-.92-4.03.08-7.4,3.05-10.26,2.25-2.17,4.49-4.35,6.59-6.65.59-.64.68-1.74.99-2.63-.89-.23-1.83-.77-2.65-.63-4.83.83-9.65,1.79-14.45,2.77-4.26.87-8.5,2.45-12.87.84-1.89-.7-3.75-1.71-5.34-2.94-2.48-1.93-2.31-3.87.23-5.92.8-.65,1.68-1.19,2.52-1.79,0-.28-.01-.57-.02-.85-2.97-.71-5.92-1.8-8.93-2.03-5.05-.39-8.9-3.08-12.74-5.83-1.78-1.28-1.51-2.25.49-3.32,2.37-1.26,4.69-2.61,7.03-3.92-.05-.4-.1-.81-.15-1.21-7.26-2.83-14.52-5.65-22.26-8.67,5.03-2.84,10.6-2.34,15.56-4.66-1.59-.34-3.17-.73-4.78-1-5.53-.95-10.83-2.44-15.26-6.15-2.95-2.47-3.34-4.9-.75-7.76,1.77-1.95,3.89-3.58,6.46-5.89-3.24-.9-5.91-1.76-8.64-2.36-5.15-1.14-10.42-1.81-15.47-3.27-8.11-2.34-14.75-7.23-20.2-13.58-1.2-1.4-1.44-3.61-2.12-5.45,1.87-.31,3.83-1.15,5.58-.83,4.8.87,9.52,2.22,14.63,2.98-1.69-1.34-3.24-2.92-5.08-3.99-5.5-3.19-11.09-6.23-16.68-9.26-6.16-3.34-11.47-7.57-15.07-13.72-.49-.84-1.39-1.45-1.82-2.31-.4-.79-.42-1.76-.61-2.66.91-.09,2.03-.57,2.68-.21,3.25,1.83,6.4,3.84,9.53,5.88,2.46,1.61,4.65,3.76,7.3,4.92,2.28,1,5.01,1.21,7.56,1.24,2.59.04,3.39-1.53,2-3.75-1.22-1.95-2.69-3.82-4.34-5.43-4.16-4.05-8.46-7.96-12.76-11.87-.91-.83-1.98-1.51-3.03-2.17-2.01-1.27-2.71-3.39-1.64-5.27,1.2-2.12,3-1.45,4.43-.58,4.19,2.57,8.19,5.45,12.38,8.03,7.32,4.5,14.68,8.93,22.1,13.26,1.75,1.02,3.77,1.71,5.74,2.2.91.23,2.02-.39,3.04-.62-.63-.85-1.1-1.92-1.92-2.51-4.99-3.59-10.54-6.56-14.99-10.71-6.92-6.44-13.16-13.62-19.59-20.57-1.12-1.21-2.04-2.78-2.54-4.35-.32-1-.09-2.84.6-3.32.85-.6,2.51-.49,3.63-.11,1,.34,1.81,1.39,2.59,2.23,7.68,8.37,15.28,16.83,24.68,23.37,2.2,1.53,4.56,2.86,6.95,4.06.81.41,1.96.14,2.95.17-.12-1.18.16-2.67-.45-3.49-1.25-1.71-3.02-3.02-4.51-4.57-3.91-4.06-7.81-8.11-11.63-12.25-.87-.94-1.39-2.18-2.08-3.29.15-.27.31-.53.46-.8,1.35.4,2.82.56,4.02,1.23,8.67,4.82,17.4,9.55,25.9,14.65,22.27,13.38,44.64,26.55,67.88,38.19,19.86,9.96,39.62,20.11,58.21,32.35,10.93,7.19,21.69,14.64,30.13,24.84,6.36,7.69,11.68,16.11,15.63,25.26,5.17,12,9.82,24.22,14.81,36.29,1.6,3.88,3.49,7.66,5.43,11.39,1.6,3.08,7,4.28,9.65,2.1.68-.56,1.09-2.19.8-3.05-7.8-22.98-5.88-46.59-4.93-70.2.99-24.43,7.72-47.6,14.38-70.85,3.94-13.77,7.38-27.69,11.13-41.51,2.06-7.61,4.02-15.26,6.54-22.72,2.4-7.11,2.02-14.28,1.63-21.5-.3-5.35-.88-10.68-1.34-16.2,2.49-.28,4.33,1.12,5.8,2.65,3.21,3.34,6.27,6.85,9.2,10.45,5.15,6.34,6.67,13.99,7.08,21.85.44,8.39.48,16.79.71,25.19.01.5.21,1,.87,1.67.41-.87.87-1.72,1.21-2.61,2.8-7.26,5.5-14.57,8.43-21.77.55-1.34,2.02-2.31,3.06-3.44.61,1.39,1.69,2.75,1.75,4.16.48,11.59,1.72,23.3-4.15,34.12-.94,1.73-2,3.39-2.96,5.1-.45.81-.81,1.66-1.22,2.5.23.23.46.46.69.69,1.32-.99,2.87-1.78,3.91-3.01,4.27-5.03,8.43-10.15,12.54-15.31,2.5-3.13,4.93-6.29,9.26-8.11.1,1.1.41,1.96.2,2.68-1.77,6.1-2.43,12.47-3.95,18.53-1.43,5.68-5.24,10.88-8.54,15.94-2.92,4.48-6.6,8.45-9.91,12.68-.68.86-1.19,1.85-2.06,3.22,4.2-.2,6.86-2.4,9.56-4.27,6.67-4.62,13.04-9.69,19.83-14.1,3.6-2.34,7.8-3.82,12.18-4.21.2.3.4.59.6.89-2.21,1.93-4.33,3.97-6.64,5.77-5.48,4.29-11.09,8.41-16.55,12.72-1.23.97-2.24,2.33-3.05,3.7-1.77,3.01-.61,5.31,2.92,5.59,1.91.15,3.94-.02,5.79-.52,5.3-1.43,10.58-2.8,16.1-1.62,1.05.22,1.99.95,2.98,1.44-.64.89-1.1,2.09-1.96,2.62-5.31,3.28-10.72,6.4-16.07,9.61-1.11.67-2.13,1.49-3.61,2.55,1.32.83,2.12,1.59,3.06,1.88,5.86,1.83,9.47,6.49,13.42,10.66,1.82,1.92,1.19,4.22-1.12,5.64-1.29.79-2.69,1.44-3.91,2.33-2.19,1.6-2.13,3.33.16,4.89,1.33.9,2.85,1.52,4.15,2.45.65.47,1.41,1.39,1.36,2.05-.05.63-.98,1.46-1.7,1.72-2.09.77-4.25,1.31-6.4,1.91-1.18.33-2.37.6-3.56.9-.12.27-.23.54-.35.81,2.82,1.99,5.64,3.97,9.12,6.43-4.59,1.75-8.74,3.34-13.53,5.17,1.27,1.26,1.88,1.94,2.56,2.54,2.45,2.13,2.24,3.46-.54,5.02-2.95,1.66-5.79,3.52-8.61,5.39-.79.53-1.71,1.3-1.96,2.13-1.24,4.22-4.87,4.9-8.31,5.8-2.43.63-2.93,1.53-1.29,3.59,2.88,3.61,5.99,7.05,8.92,10.62,1.24,1.51,2.48,3.08,3.35,4.81,1.16,2.33.24,4.18-2.35,4.54-1.79.24-3.79.07-5.5-.49-4.17-1.36-8.23-3.05-12.33-4.6-.73-.28-1.48-.53-3.04-1.08.66,1.73,1.01,2.84,1.5,3.89,3.05,6.6,3.78,13.48,3.2,20.69-.56,6.95-4.02,8.06-9.73,8.55-1.67.14-3.34.32-5.37.52,2.31,3.23,5.82,4.43,8.52,3.4,4.44-1.69,8.82-3.54,13.34-4.97,2.05-.65,4.37-.54,6.57-.63,1.15-.05,2.31.38,3.46.33,4.08-.17,7.49.93,10.17,4.27.78.97,2.43,1.4,3.76,1.75,3.72.98,7.48,1.79,11.23,2.66,2.05.48,3.11,1.62,2.62,3.84-.54,2.4-1.08,4.81-2.01,7.41-1.38-2.89-3.39-4.25-6.41-4.05-2.6.17-5.21.16-7.81.22-.09.38-.19.75-.28,1.13,2.54,1.29,5.08,2.58,7.62,3.87.02.25.03.51.05.76-2.91.12-5.86.58-8.73.29-7.43-.74-15.6,5.53-16.42,12.94-.48,4.35-1.83,8.26-4.34,11.95-9.87,14.5-12.25,30.7-10,47.74.94,7.13,8.59,12.13,16.9,11.06,4.13-.53,8.14-1.98,12.24-2.83,4.51-.93,9.07-2.35,13.6-2.3,6.07.07,9.51,7.4,6.34,12.62-.62,1.01-1.97,1.78-3.15,2.21-2.9,1.07-3.64,2.68-1.84,5.28,1.73,2.49,3.79,4.76,5.53,7.24,2.5,3.57,1.72,5.64-2.35,7.12-2.1.76-4.19,1.59-6.17,2.61-2.64,1.36-3.24,3.55-1.49,5.96,1.39,1.91,1.42,3.3-.84,4.19-2.35.93-4.79,1.66-7.22,2.37-1.44.42-3.01.47-4.38,1.02-.64.25-1.45,1.38-1.35,1.97.85,4.94-2.72,6.94-6.02,8.77-3.51,1.94-7.33,3.34-11.07,4.83-4.38,1.74-5.37,3.2-4.94,7.86.39,4.19-1.27,6.29-5.53,5.8-3.1-.35-6.07-1.85-9.1-2.84-.41-.14-.82-.3-2.04-.74-.09.75-.08,1.49-.28,2.15-1.77,5.81-4.14,11.28-9.12,15.13-.75.58-1.85.94-2.8.98-6.05.26-9.74-3.35-12.64-8.06-1.39-2.25-2.58-4.62-4.32-7.77-.73,2.46-1.37,4.14-1.7,5.88-.57,2.98-.87,6.01-1.4,9.01-.44,2.51-1.91,3.58-4.57,3.3-3.79-.4-7.15-1.5-9.81-4.37-1.82-1.96-3.07-2-4.45.25-1.76,2.89-3.16,6.01-4.61,9.08-1.24,2.63-2.3,2.83-4.2.57-.46-.54-.8-1.18-1.18-1.79-1.58-2.59-3.69-3.77-6.89-3.46-4.25.41-8.07-.97-11.51-3.6-.78-.6-2.26-.74-3.27-.49-1.98.49-3.83,1.51-5.79,2.13-3.58,1.14-5.75.08-7.4-3.29-.74-1.52-1.55-3.04-2.57-4.38-2.07-2.72-5.39-3.54-8.68-2.36-4.87,1.75-6.84.32-6.31-4.85,1.08-10.49,5.38-19.74,12.12-27.65,5.54-6.5,11.74-12.46,17.81-18.49,8.66-8.6,15.87-18.18,20.72-29.45,3.11-7.24-.05-15.53-7.3-18.7Z"/></g></g><path class="cls-3" d="M58.42,235.87c.25.32.48.6.71.89-.28.08-.33.06-.48-.18-.03-.04-.08-.07-.13-.1,0,.05,0,.11,0,.16.07.23.22.33.46.3.13-.02.27,0,.44,0-.37-.46-.72-.91-1.1-1.4-.06.41-.12.77-.18,1.18-.55-.72-1.08-1.41-1.61-2.1.42-.69.84-1.37,1.28-2.09.38,1,.75,1.96,1.12,2.92-.01,0-.03.02-.04.03-.45-.39-.9-.78-1.35-1.18-.06.07-.11.12-.17.19.72.63,1.43,1.26,2.15,1.88.01,0,.02-.02.04-.03-.56-1.45-1.11-2.9-1.68-4.39-.13.21-.24.39-.35.57-.4.66-.8,1.32-1.21,1.98-.07.11-.06.18.02.29.7.91,1.39,1.82,2.09,2.73.07.09.11.17.06.3-.62,1.71-1.23,3.41-1.84,5.12,0,.02-.02.03-.06.09-.04-.31-.05-.59-.1-.86-.08-.4,0-.76.14-1.13.28-.73.54-1.46.81-2.19.05-.13.04-.21-.09-.29-.12-.07-.23-.17-.32-.29.17.04.35.08.51.14.11.03.18.02.25-.07.13-.18.28-.36.44-.57-.26-.07-.48-.14-.71-.19-.04,0-.1.04-.13.08-.12.12-.23.24-.34.36.23.1.54.07.69-.12-.15.02-.26.03-.39.04q.15-.25.64-.08c-.11.14-.21.27-.32.4-.02.03-.1.02-.15,0-.25-.06-.51-.13-.76-.2-.31-.09-.48-.32-.48-.64,0-.32,0-.63,0-.99.18.18.34.33.5.49.16.15.32.3.51.48,0-.07,0-.14-.02-.16-.38-.35-.77-.7-1.13-1.03,0,.27.03.62,0,.96-.05.45.07.77.49,1,.22.12.41.3.6.47.04.04.08.14.06.18-.3.83-.6,1.66-.91,2.49,0,0-.02.01-.05.03-.08-.21-.18-.4-.24-.61-.02-.06.03-.18.09-.23.37-.33.31-.78.37-1.23-.23.06-.43.12-.67.18.1.16.18.3.27.45.03,0,.05-.02.08-.03-.04-.1-.07-.21-.12-.34.08-.02.16-.05.27-.08.02.39-.04.74-.34,1-.13.12-.14.24-.06.38.41.77.4,1.63.47,2.46.02.28.09.52.19.76.61,1.52,1.22,3.03,1.83,4.55.03.08.04.18.02.25-.38,1.31-.77,2.62-1.16,3.93,0,.03-.02.06-.05.12-.42-.21-.82-.42-1.25-.64.38-.56.9-.93,1.34-1.39-.08.32-.16.65-.26.97-.01.05-.1.09-.16.11-.08.02-.17.02-.3.04.12-.14.21-.24.29-.35.02-.03,0-.08,0-.12-.03.01-.08.01-.1.04-.17.19-.33.38-.53.61.3-.04.56-.06.81-.1.04,0,.09-.06.1-.11.14-.5.27-1.01.41-1.54-.37.39-.73.75-1.09,1.12-.02-.02-.04-.04-.07-.05.06-.11.13-.23.19-.34.2-.35.41-.7.61-1.06.03-.06.03-.17,0-.24-.11-.22-.25-.43-.37-.65-.03-.06-.06-.15-.05-.21.13-.53.27-1.07.43-1.67.16.4.3.73.45,1.1-.13.02-.24.04-.37.07.02-.1.03-.17.03-.24,0-.03-.03-.07-.04-.1-.03.02-.08.04-.08.06-.03.14-.06.28-.09.45.26-.05.49-.09.73-.13-.22-.54-.43-1.05-.64-1.57h-.04c-.16.63-.33,1.27-.5,1.95-.18-.3-.34-.57-.48-.84-.03-.05,0-.13.02-.19.17-.54.35-1.08.51-1.62.03-.09.01-.2-.02-.29-.15-.34-.33-.66-.49-1-.03,0-.05,0-.08.01,0,.05,0,.12.01.16.13.28.28.55.41.84.04.08.05.2.02.29-.16.54-.35,1.08-.51,1.62-.03.09-.01.22.03.3.31.55.62,1.09.94,1.63.07.11.06.19,0,.3-.13.2-.24.4-.39.59.06-.2.12-.39.17-.59.02-.06.01-.15-.02-.21-.26-.38-.52-.74-.82-1.15-.14.44-.26.85-.38,1.26h-.04c0-.26,0-.52,0-.78,0-3.31,0-6.63,0-9.94,0-1.82,0-3.64,0-5.46,0-.14.04-.24.14-.34.63-.63,1.25-1.27,1.88-1.93.28.28.55.55.82.82.39.38.78.77,1.15,1.16.08.08.13.21.13.32,0,2.86,0,5.72,0,8.57,0,.09,0,.19,0,.28.02.01.03.02.05.03.18-.19.36-.39.55-.58,3.13-3.19,6.26-6.37,9.38-9.57.3-.31.59-.45,1.01-.43.76.03,1.53,0,2.32,0,0,.04.02.1.02.16,0,.86.02,1.71.02,2.57,0,.1-.05.23-.12.3-1.6,1.64-3.2,3.28-4.81,4.91-2.47,2.52-4.94,5.03-7.41,7.55-.3.31-.6.61-.9.92-.06.06-.1.17-.1.25,0,2.44,0,4.87,0,7.31,0,.07,0,.15,0,.23.37-.36.74-.71,1.09-1.06,3.05-3.1,6.09-6.21,9.13-9.31.12-.13.25-.18.43-.18.81,0,1.63,0,2.44-.02.07,0,.13,0,.24.01,0,.28,0,.56,0,.83,0,.64.02,1.27.01,1.91,0,.1-.05.23-.13.3-2.45,2.5-4.9,5-7.35,7.5-1.87,1.91-3.74,3.81-5.61,5.72-.13.14-.27.24-.27.48.01,3.01,0,6.02,0,9.03,0,4.29,0,8.57,0,12.86,0,.16-.05.28-.16.4-.58.58-1.15,1.17-1.73,1.76-.04.04-.09.08-.18.17-.38-.39-.74-.78-1.12-1.16-.26-.27-.53-.55-.81-.8-.13-.12-.15-.24-.15-.4,0-1.59,0-3.19,0-4.78,0-4.17,0-8.34,0-12.51,0-5.62,0-11.24,0-16.85,0-.05,0-.1,0-.17.25.08.47.16.74.25-.02-.23-.04-.42-.06-.62-.03,0-.05,0-.08,0v.43c-.16-.06-.28-.1-.41-.15.09-.31.18-.6.28-.94.23.33.45.62.65.92.03.04.01.12,0,.17-.2.66-.36,1.33-.76,1.91-.12.17-.08.29.11.38.38.19.76.39,1.15.59-.13.44-.25.87-.38,1.29-.04.13-.02.22.06.32.82,1.18,1.64,2.36,2.46,3.54.04.06.08.11.13.19-.87.62-1.73,1.24-2.62,1.87-.08-.45-.15-.86-.22-1.28-.08-.46-.15-.93-.24-1.39-.02-.13,0-.2.12-.26.27-.13.54-.28.81-.41.05-.02.15-.02.17.01.29.39.57.78.85,1.17,0,0,0,.03,0,.05-.44-.03-.88-.06-1.37-.09.17-.16.31-.28.46-.42.11.09.21.17.31.24,0,0,.04-.03.08-.06-.12-.13-.24-.25-.37-.38-.26.23-.52.46-.82.73.66.04,1.27.08,1.92.13-.03-.1-.04-.17-.07-.22-.33-.47-.66-.93-1-1.4-.16.07-.29.14-.45.22.05-.46.1-.89.13-1.32,0-.1-.02-.23-.08-.32-.35-.47-.72-.92-1.09-1.39.18-.22.36-.42.55-.65-.18-.15-.35-.3-.53-.45-.03-.02-.08-.01-.12-.02.01.04,0,.09.03.12.13.12.27.23.42.36-.18.21-.35.41-.54.63.23.3.47.6.7.9-.2.28-.4.54-.59.81-.04.06-.09.15-.09.22.02.42.05.84.08,1.26,0,.03.01.06.02.09.55-.46.64-1.1.76-1.74-.02-.02-.04-.03-.06-.05-.11.13-.23.25-.34.38-.03.04-.04.09-.06.13.05-.01.1-.02.15-.04.02,0,.04-.03.09-.06-.09.37-.1.75-.44,1.01-.02-.34-.04-.66-.06-.99,0-.04,0-.09.03-.12.19-.27.39-.53.6-.81.15.18.28.35.4.52.02.03.02.09.02.14-.04.45-.09.89-.14,1.34,0,.06-.07.14-.13.18-.18.12-.44.17-.52.33-.08.15.04.4.07.6.12.72.24,1.44.37,2.16.03.15.01.25-.13.32-.33.15-.42.42-.45.78-.08,1.02-.2,2.03-.31,3.05-.02.15.01.26.12.37.59.68,1.2,1.36,1.75,2.07.36.45.64.96.95,1.45.03.04.03.12,0,.17-.41,1.12-.83,2.24-1.25,3.35,0,.01-.02.02-.05.05.12-.78.23-1.53.35-2.28.06-.42.13-.83.18-1.25,0-.07-.02-.17-.06-.22-.57-.68-1.15-1.35-1.73-2.03-.02-.02-.05-.04-.11-.09.09,1.83.18,3.62.27,5.41.01,0,.03,0,.04,0,.1-.36.2-.72.3-1.08.12-.45.25-.9.37-1.36.03-.12.03-.25.01-.36-.06-.34-.13-.68-.24-1.02-.08.25-.17.49-.24.74,0,.03.02.07.03.1.03-.02.08-.04.1-.07.04-.08.06-.16.11-.3.09.42.18.75.05,1.12-.16.46-.27.94-.43,1.41-.07-1.38-.14-2.77-.21-4.2.07.07.12.1.15.15.45.53.91,1.05,1.36,1.59.06.08.1.21.09.31-.2,1.34-.4,2.68-.61,4.01-.05.28-.17.55-.27.82-.19.52-.39,1.03-.57,1.55-.04.13-.05.28-.03.42.21,1.51.42,3.02.63,4.53,0,.03.01.05.03.12.71-.4,1.4-.8,2.15-1.22-.43,1.07-.84,2.08-1.28,3.15-.16-.61-.3-1.15-.45-1.73-.2.12-.38.23-.55.34-.26.16-.53.32-.79.5-.06.04-.13.12-.13.18-.01.56,0,1.12,0,1.7.05-.02.09-.02.12-.04.33-.22.67-.44,1-.66.05-.03.11-.1.11-.15,0-.33-.03-.66-.04-1.04-.28.3-.53.56-.78.82-.02.02,0,.07,0,.1.03,0,.08,0,.1-.03.13-.13.26-.27.39-.4.04-.05.07-.11.11-.17.02.01.04.03.06.04.01.2.03.39.03.59,0,.05-.03.11-.07.13-.28.19-.56.37-.88.59,0-.33.03-.62,0-.9-.07-.47.09-.76.53-.95.25-.11.47-.28.73-.45.12.45.23.87.33,1.3.12.46.11.46-.27.75-.38.29-.76.59-1.17.9.65.63,1.28,1.25,1.93,1.89.51-.47,1.02-.93,1.55-1.41-.6-.31-1.18-.61-1.79-.92-.02.46-.04.88-.06,1.34.33-.03.64-.06.97-.09,0-.09,0-.16-.01-.25-.23.02-.45.03-.69.05.01-.21.02-.4.03-.63.37.19.72.37,1.1.56-.37.34-.72.65-1.11,1-.48-.53-.96-1.05-1.43-1.57-.03.02-.06.04-.09.05.15-.12.29-.25.45-.35.67-.4,1.07-.97,1.33-1.71.34-.98.77-1.93,1.16-2.9.02-.06.04-.11.08-.23-.84.48-1.64.94-2.46,1.4-.05-.36-.16-.69.06-1.02.13-.19.21-.42.29-.64.06-.14.14-.21.3-.24.53-.1,1.07-.23,1.61-.34v-1.65c-.38.4-.73.77-1.1,1.16.12.02.2.04.28.04.05,0,.1-.03.16-.04-.03-.04-.07-.08-.12-.14.2-.21.41-.43.64-.68v1.2c-.52.11-1.05.23-1.61.35.3-.66.58-1.28.86-1.9.18-.41.37-.82.55-1.23.03-.06.05-.14.03-.19-.24-.72-.49-1.44-.75-2.22-.46,1.13-.9,2.21-1.34,3.28.01,0,.02.02.03.03.43-.29.87-.58,1.3-.87.02-.02.02-.07.03-.1-.04,0-.09-.01-.12,0-.22.14-.44.29-.66.43-.09.06-.17.11-.29.15.34-.83.68-1.66,1.03-2.54.17.49.29.93.47,1.35.16.37.14.68-.04,1.05-.57,1.2-1.1,2.41-1.64,3.62-.02.05-.06.11-.1.2-.1-.72-.2-1.4-.3-2.08-.06-.42-.12-.83-.17-1.25-.01-.12,0-.25.04-.36.77-2.1,1.55-4.19,2.34-6.28.06-.17.06-.3-.05-.45-.27-.39-.52-.8-.77-1.2-.04-.07-.05-.2-.01-.28.28-.6.57-1.19.85-1.79.05-.1.07-.22.08-.34,0-.57,0-1.13,0-1.7,0-.1,0-.18-.13-.22-.57-.15-1.13-.31-1.7-.46-.03,0-.07,0-.12-.01-.1.51-.17,1.03-.29,1.53-.09.36-.04.62.26.86.31.24.58.52.87.79.22-.49.47-1.03.73-1.6-.28.07-.52.13-.77.2-.09-.3-.18-.6-.28-.94-.05.08-.1.12-.09.15.09.32.18.63.28.97.2-.05.39-.1.62-.16-.19.42-.36.81-.52,1.15-.32-.3-.66-.6-.99-.91-.02-.02-.04-.08-.03-.11.1-.58.21-1.15.32-1.75.42.11.82.22,1.21.33q.49.13.49.64c0,.22-.02.44,0,.66.06.52-.08.99-.33,1.44-.23.42-.42.86-.64,1.32-.29-.33-.55-.64-.82-.96-.3-.35-.6-.69-.88-1.04-.06-.08-.11-.21-.1-.31.09-1.02.2-2.03.3-3.05,0-.07.02-.13.03-.22.49.09.96.19,1.43.28.44.09.88.17,1.32.27.15.03.22-.02.28-.15.61-1.23,1.22-2.46,1.84-3.68.04-.08.08-.15.13-.25.08.32.13.63.24.9.11.27.29.51.46.79-.25.11-.47.25-.72.32-.49.15-.78.44-.86.97-.04.29-.17.58-.22.88.33-.36.66-.72.98-1.09.02-.03,0-.09,0-.19-.26.28-.47.51-.68.74-.01,0-.02-.01-.03-.02.08-.28.16-.55.26-.82.02-.05.08-.1.14-.13.43-.2.86-.4,1.32-.61-.17-.28-.36-.54-.47-.83-.14-.37-.2-.77-.29-1.15,0-.02,0-.05.02-.08.3-.6.6-1.2.93-1.8v3.03s.03.01.04.02c.19-.25.39-.5.58-.76.62-.81,1.24-1.63,1.86-2.44.07-.09.16-.17.26-.23.82-.52,1.63-1.03,2.48-1.56-.26-.16-.49-.31-.72-.46-.33.28-.37.34-.28.48.09-.11.18-.21.27-.32.16.1.3.18.48.29-.7.44-1.39.87-2.07,1.29,0,0-.02-.02-.03-.03.37-.49.77-.95,1.1-1.47.28-.44.62-.64,1.13-.55.45.08.78-.08,1.07-.43.38-.46.82-.87,1.25-1.32-.27-.39-.54-.78-.83-1.2-.29.42-.57.83-.86,1.25.15.16.29.31.45.48.15-.16.29-.31.43-.46.02-.02,0-.08,0-.12-.03.01-.08.01-.1.04-.11.11-.21.22-.33.34-.1-.1-.19-.19-.28-.28.23-.33.45-.66.69-1.01.23.32.43.63.66.95-.12.13-.25.26-.37.38-.35.36-.7.72-1.04,1.09-.11.11-.21.17-.38.16-.32-.01-.65,0-1,0,.58-1.31,1.16-2.59,1.74-3.89.48.39.93.77,1.4,1.15.8-1.01,1.6-2.01,2.41-3.03h-2.8c-.03.64-.05,1.28-.08,1.97.49-.31.93-.59,1.39-.88-.05-.08-.09-.14-.14-.22-.32.2-.63.39-.94.59v-1.21h2.03c-.65.82-1.28,1.61-1.91,2.41-.49-.4-.97-.8-1.46-1.2-.3.66-.58,1.3-.87,1.94-.31.69-.6,1.39-.94,2.07-.16.33-.39.63-.61.93-.74.99-1.49,1.97-2.24,2.95-.03.04-.07.08-.13.11.1-.39.2-.79.3-1.18.26-1.04.52-2.07.78-3.11.03-.14.1-.23.22-.3.4-.22.78-.45,1.22-.64-.38.78-.75,1.56-1.13,2.35-.02,0-.03-.01-.05-.02.03-.41.06-.81.09-1.27-.07.04-.13.06-.13.08-.05.61-.1,1.23-.14,1.84.02,0,.04.01.06.02.53-1.11,1.07-2.22,1.6-3.32l-.03-.03s-.09.04-.13.06c-.49.28-.98.57-1.47.85-.13.07-.19.16-.22.29-.38,1.53-.76,3.05-1.15,4.58-.03.1-.07.21-.14.3-.22.3-.45.6-.73.89v-3.33s-.03,0-.05-.01c-.61,1.22-1.22,2.45-1.85,3.69-.24-.34-.47-.66-.72-1,.39-.49.79-.98,1.22-1.51-.1.48-.19.89-.55,1.17-.05.04-.06.12-.06.19.26-.24.54-.45.62-.83.07-.36.2-.71.26-1.09-.55.68-1.11,1.37-1.66,2.05.24.34.46.67.7.99.09.13.09.24.02.38-.47.93-.93,1.86-1.4,2.79-.03.06-.13.15-.18.14-.82-.15-1.64-.31-2.5-.48,1.09-.78,2.15-1.54,3.21-2.3-.31-.45-.62-.87-.9-1.31-.06-.1-.1-.24-.09-.36.12-.92.26-1.84.39-2.77.01-.11.02-.22,0-.33-.23-.86-.47-1.72-.7-2.58,0-.03-.02-.06-.05-.14-.05.2-.1.36-.14.52-.19.75-.37,1.5-.57,2.25-.04.15-.03.25.08.37.23.23.44.47.69.75.08-.52.15-.99.22-1.49-.19.08-.35.14-.51.2,0,.03,0,.06.01.08.1-.01.2-.02.32-.04-.04.3-.09.6-.13.94-.2-.21-.37-.39-.53-.59-.03-.04-.03-.12-.02-.17.19-.75.38-1.5.57-2.27.03.05.05.08.06.12.19.69.4,1.38.56,2.08.05.23-.02.49-.05.73-.1.72-.2,1.45-.3,2.17,0,.05-.02.09-.04.18-.1-.13-.18-.24-.25-.35-.43-.61-.85-1.23-1.28-1.84-.08-.12-.09-.22-.05-.35.53-1.79,1.06-3.58,1.58-5.38.03-.11.02-.25-.02-.35-.2-.52-.41-1.03-.63-1.57.47-.12.91-.23,1.36-.35.52-.13,1.04-.27,1.57-.39.16-.04.2-.1.18-.25-.12-.82-.23-1.64-.36-2.46-.03-.2,0-.3.19-.4,1.67-.89,3.34-1.8,5.01-2.7.03-.02.06-.03.12-.05-.04.28-.08.54-.13.79,0,.04-.11.09-.18.1-.26.05-.52.09-.78.12-.15.01-.21.09-.24.23-.08.34-.18.68-.31,1.02-.09-.28-.18-.56-.27-.87-.41.2-.81.38-1.2.57-.04.02-.07.07-.08.11,0,.16,0,.31,0,.49.37-.08.71-.15,1.09-.22-.16-.13-.29-.24-.42-.35q-.04.05.12.27c-.22.05-.43.09-.64.14-.07-.21-.02-.33.19-.41.29-.11.56-.26.86-.4.1.32.19.62.29.95-.41.08-.81.16-1.21.24-.51.1-1.02.19-1.52.29-.09.02-.17.03-.17.16,0,.78,0,1.56,0,2.34,0,.01.01.02.03.06.56-.58,1.11-1.15,1.69-1.76-.33-.08-.63-.16-.94-.23-.03,0-.1.04-.12.07-.1.16-.2.33-.29.5-.02.03,0,.08,0,.12.04-.02.1-.04.12-.07.08-.13.15-.26.23-.39.03-.04.1-.09.14-.08.19.04.38.09.61.15-.45.46-.87.9-1.32,1.37v-2.1c.78-.15,1.56-.3,2.36-.45v.36c-.1-.06-.19-.11-.3-.18-.12.24-.23.47-.36.72-.15-.16-.3-.32-.45-.47-.03-.03-.09-.03-.13-.04.01.04.01.1.04.13.18.2.37.4.57.62.13-.27.25-.52.37-.77.13.08.24.15.4.25,0-.18,0-.33,0-.48,0-.13.02-.21.17-.21.11,0,.23-.02.26-.18,0-.04.12-.08.19-.1.18-.04.27-.14.31-.31.03-.14.09-.27.15-.44.09.15.17.27.26.42.08-.14.15-.24.21-.36.1-.2.19-.39.48-.3-.06-.19-.34-.19-.44-.03-.08.13-.15.26-.24.42-.1-.16-.19-.3-.3-.47-.09.25-.17.47-.23.69-.05.16-.13.25-.33.25.09-.36.18-.71.28-1.06.01-.04.09-.07.15-.08.29-.05.59-.09.88-.15.06-.01.13-.09.15-.15.05-.19.07-.38.1-.6.12.11.22.2.33.31-.06.09-.12.17-.18.25.13.08.14.07.36-.27-.12-.12-.25-.24-.38-.36-.15-.14-.13-.23.05-.33.31-.17.63-.34.95-.51.15-.08.24-.18.29-.35.08-.32.2-.63.28-.95.05-.2.18-.27.34-.26.36.02.72.07,1.14.11-.33.24-.61.44-.92.65v-.33c.08-.06.13-.1.19-.14-.1-.02-.19-.05-.32-.08v.8c.46-.33.92-.65,1.42-1-.43-.04-.79-.08-1.16-.12,0,0,0-.02-.01-.03.21-.08.43-.16.64-.24.21-.08.42-.17.64-.23.15-.04.21-.13.23-.27.02-.18.07-.35.09-.53.02-.12.06-.17.19-.16.19,0,.37,0,.56,0,.15.01.22-.04.26-.19.08-.3.19-.59.27-.89.04-.13.1-.17.23-.19.31-.03.61-.08.89-.12.08-.52.15-1.02.23-1.57-.05.06-.11.1-.12.15-.11.34-.23.68-.19,1.05,0,.07,0,.15,0,.24-.32.04-.63.08-.93.13-.07.01-.17.09-.19.16-.11.3-.2.6-.29.91-.04.14-.1.18-.25.17-.19-.01-.38,0-.6,0,.05-.3.1-.59.16-.89-.31-.12-.62-.23-.93-.35-.28.39-.55.76-.82,1.14-.03.04-.05.12-.03.16.13.28.28.55.42.82.24-.23.46-.45.69-.67.03-.03.04-.07.05-.11,0-.22,0-.45,0-.74-.24.18-.42.33-.6.47q.06.08.43-.15c.19.51-.27.68-.51,1.01-.12-.23-.22-.42-.32-.63-.02-.04,0-.12.03-.16.2-.3.41-.59.63-.87.03-.05.14-.08.2-.06.6.19.6.19.5.8-.06.33-.12.67-.18,1-.01.07-.05.16-.1.18-.6.23-1.2.45-1.84.69.13-.44.25-.84.38-1.24.28-.93.57-1.86.84-2.79.05-.18.12-.25.32-.22.69.09,1.38.16,2.12.24-.29.41-.57.79-.86,1.2-.2-.18-.38-.34-.58-.53.17-.06.31-.1.47-.16-.02-.08-.05-.15-.07-.24-.3.09-.59.17-.92.27.39.36.76.69,1.14,1.04.43-.59.85-1.18,1.29-1.78-.44-.05-.84-.1-1.24-.14,0-.01,0-.02,0-.03.29-.03.58-.05.86-.1.1-.02.21-.07.27-.15.23-.28.44-.58.69-.9-.11,0-.19-.02-.26-.02-.33-.01-.66,0-.99-.04-.28-.03-.53.06-.78.17-.23.1-.45.2-.73.32.35.11.63.31.98.17.19-.08.4-.11.6-.17.03-.01.06-.06.08-.09-.04-.01-.08-.04-.12-.04-.21.05-.42.1-.62.17-.18.06-.35.06-.51-.04.62-.49,1.33-.31,2.07-.3-.21.27-.39.52-.58.76-.02.03-.09.04-.13.04-.51.06-1.01.13-1.52.16-.3.02-.6-.04-.91-.07-.15-.02-.22.01-.26.17-.56,1.85-1.12,3.7-1.69,5.54-.03.09-.09.19-.17.23-1.47.8-2.95,1.59-4.42,2.39-.02,0-.04.02-.1,0,.08-.1.13-.22.23-.3.23-.18.47-.35.71-.5.16-.09.21-.2.16-.37-.02-.08-.03-.16-.05-.29.2.12.36.23.53.31.07.03.17.03.24,0,.15-.06.3-.15.44-.23.04-.02.06-.08.09-.11-.05,0-.12-.02-.15,0-.34.29-.66.24-.99-.03-.09-.07-.2-.12-.33-.2.03.21.07.39.08.57,0,.07-.02.17-.07.21-.21.16-.43.3-.69.48.21-.52.39-.98.58-1.46.34.07.67.15,1,.2.1.02.22-.03.31-.08.09-.04.17-.12.24-.2.23-.28.51-.31.85-.24.52.1.53.09.78-.38.04-.08.09-.17.14-.26.1.09.19.16.3.26.06-.26.11-.48.15-.71,0-.03-.02-.07-.04-.1-.03.03-.08.05-.09.08-.04.14-.07.29-.11.46-.09-.07-.17-.13-.26-.2-.12.21-.22.42-.34.62-.03.05-.09.13-.14.13-.23-.01-.46-.05-.74-.08.55-.46,1.06-.88,1.61-1.35-.71-.04-1.36-.07-2.07-.11.71-.6,1.39-1.17,2.08-1.76.06.23.12.42.16.62,0,.04-.03.12-.07.15-.2.14-.4.27-.65.44.08-.21.14-.37.19-.53.01-.05,0-.1,0-.16-.04.04-.09.07-.11.12-.11.28-.22.56-.35.91.11-.07.17-.1.24-.15.28-.18.55-.36.82-.55.05-.03.1-.12.09-.17-.07-.29-.15-.59-.24-.91-.83.71-1.65,1.39-2.51,2.12.71.04,1.35.07,2.06.11-.63.53-1.23,1.02-1.83,1.52l-.03-.02c.06-.11.11-.21.18-.34-.22-.12-.43-.23-.66-.36.19-.18.37-.34.57-.53-.14-.04-.26-.08-.38-.1-.04,0-.09.02-.14.02.04.04.07.07.11.1.03.02.06.02.12.04-.18.17-.34.32-.52.49.24.13.47.25.71.39-.1.18-.19.35-.3.51-.02.04-.12.05-.17.04-.35-.06-.7-.14-1.07-.21-.14.34-.27.67-.42,1.02-.17-.2-.31-.38-.48-.58-.11.31-.22.6-.33.9-.15-.05-.29-.09-.46-.14.05.29.11.57.15.84-.02,0-.04.02-.05.02-.38-.13-.38-.12-.65.19-.06.07-.16.12-.25.17-.02,0-.05-.02-.07-.03.04.08.08.15.14.26.14-.16.26-.29.37-.43.09-.12.18-.14.31-.07.11.06.23.09.38.15-.06-.31-.11-.58-.17-.89.13.03.24.06.37.09.09-.25.18-.5.29-.79.12.15.23.27.32.4.03.04.02.13,0,.19-.1.27-.21.54-.33.81-.04.08-.12.15-.19.19-.55.3-1.1.61-1.66.89-.18.09-.21.19-.18.37.13.82.24,1.64.36,2.46,0,.05,0,.1.01.17-.89.23-1.78.45-2.67.68,0-.01-.02-.02-.03-.03.67-.8,1.33-1.6,2.02-2.43-.35-.25-.66-.52-1.02-.71-.4-.21-.48-.47-.4-.91.16-.88.26-1.77.35-2.68-.29.43-.58.87-.9,1.35-.03-.39-.06-.72-.07-1.05,0-.04.08-.1.13-.13.44-.24.88-.48,1.35-.73-.3-.16-.57-.31-.87-.46.19-.29.37-.57.56-.87.09.24.02.5.15.7.03,0,.06,0,.08-.01-.04-.34-.07-.68-.12-1.09-.31.47-.58.89-.87,1.33.26.14.5.27.77.42-.4.22-.78.43-1.17.62-.15.08-.19.16-.17.32.04.33.06.66.07.99,0,.1-.03.22-.08.31-.14.24-.3.48-.47.71-.07.09-.07.16-.01.26.33.57.65,1.14.99,1.75-.48-.18-.92-.35-1.43-.54.32.54.61,1.03.92,1.55.23-.17.44-.32.69-.5-.26-.12-.49-.22-.72-.32-.02-.01-.07.02-.1.03.02.03.02.08.05.09.15.08.31.14.51.23-.14.1-.25.18-.39.28-.21-.35-.41-.7-.65-1.09.49.18.92.34,1.41.53-.08-.15-.14-.25-.19-.35-.31-.55-.62-1.09-.92-1.64-.03-.06-.04-.18,0-.24.4-.62.81-1.24,1.22-1.85,0,0,.02-.01.05-.03-.12.85-.24,1.7-.37,2.54-.02.16.01.25.15.34.42.28.84.58,1.27.89-.68.82-1.36,1.63-2.05,2.45-.03-.06-.06-.11-.08-.16-.38-.95-.77-1.89-1.15-2.84-.05-.13-.05-.24,0-.37.67-1.84,1.32-3.69,1.99-5.53.05-.13.06-.24-.05-.33-.41-.37-.5-.81-.34-1.32.02-.06.02-.14.04-.26Z"/><path class="cls-3" d="M417.62,235.87c.25.32.48.6.71.89-.28.08-.33.06-.48-.18-.03-.04-.08-.07-.13-.1,0,.05,0,.11,0,.16.07.23.22.33.46.3.13-.02.27,0,.44,0-.37-.46-.72-.91-1.1-1.4-.06.41-.12.77-.18,1.18-.55-.72-1.08-1.41-1.61-2.1.42-.69.84-1.37,1.28-2.09.38,1,.75,1.96,1.12,2.92-.01,0-.03.02-.04.03-.45-.39-.9-.78-1.35-1.18-.06.07-.11.12-.17.19.72.63,1.43,1.26,2.15,1.88.01,0,.02-.02.04-.03-.56-1.45-1.11-2.9-1.68-4.39-.13.21-.24.39-.35.57-.4.66-.8,1.32-1.21,1.98-.07.11-.06.18.02.29.7.91,1.39,1.82,2.09,2.73.07.09.11.17.06.3-.62,1.71-1.23,3.41-1.84,5.12,0,.02-.02.03-.06.09-.04-.31-.05-.59-.1-.86-.08-.4,0-.76.14-1.13.28-.73.54-1.46.81-2.19.05-.13.04-.21-.09-.29-.12-.07-.23-.17-.32-.29.17.04.35.08.51.14.11.03.18.02.25-.07.13-.18.28-.36.44-.57-.26-.07-.48-.14-.71-.19-.04,0-.1.04-.13.08-.12.12-.23.24-.34.36.23.1.54.07.69-.12-.15.02-.26.03-.39.04q.15-.25.64-.08c-.11.14-.21.27-.32.4-.02.03-.1.02-.15,0-.25-.06-.51-.13-.76-.2-.31-.09-.48-.32-.48-.64,0-.32,0-.63,0-.99.18.18.34.33.5.49.16.15.32.3.51.48,0-.07,0-.14-.02-.16-.38-.35-.77-.7-1.13-1.03,0,.27.03.62,0,.96-.05.45.07.77.49,1,.22.12.41.3.6.47.04.04.08.14.06.18-.3.83-.6,1.66-.91,2.49,0,0-.02.01-.05.03-.08-.21-.18-.4-.24-.61-.02-.06.03-.18.09-.23.37-.33.31-.78.37-1.23-.23.06-.43.12-.67.18.1.16.18.3.27.45.03,0,.05-.02.08-.03-.04-.1-.07-.21-.12-.34.08-.02.16-.05.27-.08.02.39-.04.74-.34,1-.13.12-.14.24-.06.38.41.77.4,1.63.47,2.46.02.28.09.52.19.76.61,1.52,1.22,3.03,1.83,4.55.03.08.04.18.02.25-.38,1.31-.77,2.62-1.16,3.93,0,.03-.02.06-.05.12-.42-.21-.82-.42-1.25-.64.38-.56.9-.93,1.34-1.39-.08.32-.16.65-.26.97-.01.05-.1.09-.16.11-.08.02-.17.02-.3.04.12-.14.21-.24.29-.35.02-.03,0-.08,0-.12-.03.01-.08.01-.1.04-.17.19-.33.38-.53.61.3-.04.56-.06.81-.1.04,0,.09-.06.1-.11.14-.5.27-1.01.41-1.54-.37.39-.73.75-1.09,1.12-.02-.02-.04-.04-.07-.05.06-.11.13-.23.19-.34.2-.35.41-.7.61-1.06.03-.06.03-.17,0-.24-.11-.22-.25-.43-.37-.65-.03-.06-.06-.15-.05-.21.13-.53.27-1.07.43-1.67.16.4.3.73.45,1.1-.13.02-.24.04-.37.07.02-.1.03-.17.03-.24,0-.03-.03-.07-.04-.1-.03.02-.08.04-.08.06-.03.14-.06.28-.09.45.26-.05.49-.09.73-.13-.22-.54-.43-1.05-.64-1.57h-.04c-.16.63-.33,1.27-.5,1.95-.18-.3-.34-.57-.48-.84-.03-.05,0-.13.02-.19.17-.54.35-1.08.51-1.62.03-.09.01-.2-.02-.29-.15-.34-.33-.66-.49-1-.03,0-.05,0-.08.01,0,.05,0,.12.01.16.13.28.28.55.41.84.04.08.05.2.02.29-.16.54-.35,1.08-.51,1.62-.03.09-.01.22.03.3.31.55.62,1.09.94,1.63.07.11.06.19,0,.3-.13.2-.24.4-.39.59.06-.2.12-.39.17-.59.02-.06.01-.15-.02-.21-.26-.38-.52-.74-.82-1.15-.14.44-.26.85-.38,1.26h-.04c0-.26,0-.52,0-.78,0-3.31,0-6.63,0-9.94,0-1.82,0-3.64,0-5.46,0-.14.04-.24.14-.34.63-.63,1.25-1.27,1.88-1.93.28.28.55.55.82.82.39.38.78.77,1.15,1.16.08.08.13.21.13.32,0,2.86,0,5.72,0,8.57,0,.09,0,.19,0,.28.02.01.03.02.05.03.18-.19.36-.39.55-.58,3.13-3.19,6.26-6.37,9.38-9.57.3-.31.59-.45,1.01-.43.76.03,1.53,0,2.32,0,0,.04.02.1.02.16,0,.86.02,1.71.02,2.57,0,.1-.05.23-.12.3-1.6,1.64-3.2,3.28-4.81,4.91-2.47,2.52-4.94,5.03-7.41,7.55-.3.31-.6.61-.9.92-.06.06-.1.17-.1.25,0,2.44,0,4.87,0,7.31,0,.07,0,.15,0,.23.37-.36.74-.71,1.09-1.06,3.05-3.1,6.09-6.21,9.13-9.31.12-.13.25-.18.43-.18.81,0,1.63,0,2.44-.02.07,0,.13,0,.24.01,0,.28,0,.56,0,.83,0,.64.02,1.27.01,1.91,0,.1-.05.23-.13.3-2.45,2.5-4.9,5-7.35,7.5-1.87,1.91-3.74,3.81-5.61,5.72-.13.14-.27.24-.27.48.01,3.01,0,6.02,0,9.03,0,4.29,0,8.57,0,12.86,0,.16-.05.28-.16.4-.58.58-1.15,1.17-1.73,1.76-.04.04-.09.08-.18.17-.38-.39-.74-.78-1.12-1.16-.26-.27-.53-.55-.81-.8-.13-.12-.15-.24-.15-.4,0-1.59,0-3.19,0-4.78,0-4.17,0-8.34,0-12.51,0-5.62,0-11.24,0-16.85,0-.05,0-.1,0-.17.25.08.47.16.74.25-.02-.23-.04-.42-.06-.62-.03,0-.05,0-.08,0v.43c-.16-.06-.28-.1-.41-.15.09-.31.18-.6.28-.94.23.33.45.62.65.92.03.04.01.12,0,.17-.2.66-.36,1.33-.76,1.91-.12.17-.08.29.11.38.38.19.76.39,1.15.59-.13.44-.25.87-.38,1.29-.04.13-.02.22.06.32.82,1.18,1.64,2.36,2.46,3.54.04.06.08.11.13.19-.87.62-1.73,1.24-2.62,1.87-.08-.45-.15-.86-.22-1.28-.08-.46-.15-.93-.24-1.39-.02-.13,0-.2.12-.26.27-.13.54-.28.81-.41.05-.02.15-.02.17.01.29.39.57.78.85,1.17,0,0,0,.03,0,.05-.44-.03-.88-.06-1.37-.09.17-.16.31-.28.46-.42.11.09.21.17.31.24,0,0,.04-.03.08-.06-.12-.13-.24-.25-.37-.38-.26.23-.52.46-.82.73.66.04,1.27.08,1.92.13-.03-.1-.04-.17-.07-.22-.33-.47-.66-.93-1-1.4-.16.07-.29.14-.45.22.05-.46.1-.89.13-1.32,0-.1-.02-.23-.08-.32-.35-.47-.72-.92-1.09-1.39.18-.22.36-.42.55-.65-.18-.15-.35-.3-.53-.45-.03-.02-.08-.01-.12-.02.01.04,0,.09.03.12.13.12.27.23.42.36-.18.21-.35.41-.54.63.23.3.47.6.7.9-.2.28-.4.54-.59.81-.04.06-.09.15-.09.22.02.42.05.84.08,1.26,0,.03.01.06.02.09.55-.46.64-1.1.76-1.74-.02-.02-.04-.03-.06-.05-.11.13-.23.25-.34.38-.03.04-.04.09-.06.13.05-.01.1-.02.15-.04.02,0,.04-.03.09-.06-.09.37-.1.75-.44,1.01-.02-.34-.04-.66-.06-.99,0-.04,0-.09.03-.12.19-.27.39-.53.6-.81.15.18.28.35.4.52.02.03.02.09.02.14-.04.45-.09.89-.14,1.34,0,.06-.07.14-.13.18-.18.12-.44.17-.52.33-.08.15.04.4.07.6.12.72.24,1.44.37,2.16.03.15.01.25-.13.32-.33.15-.42.42-.45.78-.08,1.02-.2,2.03-.31,3.05-.02.15.01.26.12.37.59.68,1.2,1.36,1.75,2.07.36.45.64.96.95,1.45.03.04.03.12,0,.17-.41,1.12-.83,2.24-1.25,3.35,0,.01-.02.02-.05.05.12-.78.23-1.53.35-2.28.06-.42.13-.83.18-1.25,0-.07-.02-.17-.06-.22-.57-.68-1.15-1.35-1.73-2.03-.02-.02-.05-.04-.11-.09.09,1.83.18,3.62.27,5.41.01,0,.03,0,.04,0,.1-.36.2-.72.3-1.08.12-.45.25-.9.37-1.36.03-.12.03-.25.01-.36-.06-.34-.13-.68-.24-1.02-.08.25-.17.49-.24.74,0,.03.02.07.03.1.03-.02.08-.04.1-.07.04-.08.06-.16.11-.3.09.42.18.75.05,1.12-.16.46-.27.94-.43,1.41-.07-1.38-.14-2.77-.21-4.2.07.07.12.1.15.15.45.53.91,1.05,1.36,1.59.06.08.1.21.09.31-.2,1.34-.4,2.68-.61,4.01-.05.28-.17.55-.27.82-.19.52-.39,1.03-.57,1.55-.04.13-.05.28-.03.42.21,1.51.42,3.02.63,4.53,0,.03.01.05.03.12.71-.4,1.4-.8,2.15-1.22-.43,1.07-.84,2.08-1.28,3.15-.16-.61-.3-1.15-.45-1.73-.2.12-.38.23-.55.34-.26.16-.53.32-.79.5-.06.04-.13.12-.13.18-.01.56,0,1.12,0,1.7.05-.02.09-.02.12-.04.33-.22.67-.44,1-.66.05-.03.11-.1.11-.15,0-.33-.03-.66-.04-1.04-.28.3-.53.56-.78.82-.02.02,0,.07,0,.1.03,0,.08,0,.1-.03.13-.13.26-.27.39-.4.04-.05.07-.11.11-.17.02.01.04.03.06.04.01.2.03.39.03.59,0,.05-.03.11-.07.13-.28.19-.56.37-.88.59,0-.33.03-.62,0-.9-.07-.47.09-.76.53-.95.25-.11.47-.28.73-.45.12.45.23.87.33,1.3.12.46.11.46-.27.75-.38.29-.76.59-1.17.9.65.63,1.28,1.25,1.93,1.89.51-.47,1.02-.93,1.55-1.41-.6-.31-1.18-.61-1.79-.92-.02.46-.04.88-.06,1.34.33-.03.64-.06.97-.09,0-.09,0-.16-.01-.25-.23.02-.45.03-.69.05.01-.21.02-.4.03-.63.37.19.72.37,1.1.56-.37.34-.72.65-1.11,1-.48-.53-.96-1.05-1.43-1.57-.03.02-.06.04-.09.05.15-.12.29-.25.45-.35.67-.4,1.07-.97,1.33-1.71.34-.98.77-1.93,1.16-2.9.02-.06.04-.11.08-.23-.84.48-1.64.94-2.46,1.4-.05-.36-.16-.69.06-1.02.13-.19.21-.42.29-.64.06-.14.14-.21.3-.24.53-.1,1.07-.23,1.61-.34v-1.65c-.38.4-.73.77-1.1,1.16.12.02.2.04.28.04.05,0,.1-.03.16-.04-.03-.04-.07-.08-.12-.14.2-.21.41-.43.64-.68v1.2c-.52.11-1.05.23-1.61.35.3-.66.58-1.28.86-1.9.18-.41.37-.82.55-1.23.03-.06.05-.14.03-.19-.24-.72-.49-1.44-.75-2.22-.46,1.13-.9,2.21-1.34,3.28.01,0,.02.02.03.03.43-.29.87-.58,1.3-.87.02-.02.02-.07.03-.1-.04,0-.09-.01-.12,0-.22.14-.44.29-.66.43-.09.06-.17.11-.29.15.34-.83.68-1.66,1.03-2.54.17.49.29.93.47,1.35.16.37.14.68-.04,1.05-.57,1.2-1.1,2.41-1.64,3.62-.02.05-.06.11-.1.2-.1-.72-.2-1.4-.3-2.08-.06-.42-.12-.83-.17-1.25-.01-.12,0-.25.04-.36.77-2.1,1.55-4.19,2.34-6.28.06-.17.06-.3-.05-.45-.27-.39-.52-.8-.77-1.2-.04-.07-.05-.2-.01-.28.28-.6.57-1.19.85-1.79.05-.1.07-.22.08-.34,0-.57,0-1.13,0-1.7,0-.1,0-.18-.13-.22-.57-.15-1.13-.31-1.7-.46-.03,0-.07,0-.12-.01-.1.51-.17,1.03-.29,1.53-.09.36-.04.62.26.86.31.24.58.52.87.79.22-.49.47-1.03.73-1.6-.28.07-.52.13-.77.2-.09-.3-.18-.6-.28-.94-.05.08-.1.12-.09.15.09.32.18.63.28.97.2-.05.39-.1.62-.16-.19.42-.36.81-.52,1.15-.32-.3-.66-.6-.99-.91-.02-.02-.04-.08-.03-.11.1-.58.21-1.15.32-1.75.42.11.82.22,1.21.33q.49.13.49.64c0,.22-.02.44,0,.66.06.52-.08.99-.33,1.44-.23.42-.42.86-.64,1.32-.29-.33-.55-.64-.82-.96-.3-.35-.6-.69-.88-1.04-.06-.08-.11-.21-.1-.31.09-1.02.2-2.03.3-3.05,0-.07.02-.13.03-.22.49.09.96.19,1.43.28.44.09.88.17,1.32.27.15.03.22-.02.28-.15.61-1.23,1.22-2.46,1.84-3.68.04-.08.08-.15.13-.25.08.32.13.63.24.9.11.27.29.51.46.79-.25.11-.47.25-.72.32-.49.15-.78.44-.86.97-.04.29-.17.58-.22.88.33-.36.66-.72.98-1.09.02-.03,0-.09,0-.19-.26.28-.47.51-.68.74-.01,0-.02-.01-.03-.02.08-.28.16-.55.26-.82.02-.05.08-.1.14-.13.43-.2.86-.4,1.32-.61-.17-.28-.36-.54-.47-.83-.14-.37-.2-.77-.29-1.15,0-.02,0-.05.02-.08.3-.6.6-1.2.93-1.8v3.03s.03.01.04.02c.19-.25.39-.5.58-.76.62-.81,1.24-1.63,1.86-2.44.07-.09.16-.17.26-.23.82-.52,1.63-1.03,2.48-1.56-.26-.16-.49-.31-.72-.46-.33.28-.37.34-.28.48.09-.11.18-.21.27-.32.16.1.3.18.48.29-.7.44-1.39.87-2.07,1.29,0,0-.02-.02-.03-.03.37-.49.77-.95,1.1-1.47.28-.44.62-.64,1.13-.55.45.08.78-.08,1.07-.43.38-.46.82-.87,1.25-1.32-.27-.39-.54-.78-.83-1.2-.29.42-.57.83-.86,1.25.15.16.29.31.45.48.15-.16.29-.31.43-.46.02-.02,0-.08,0-.12-.03.01-.08.01-.1.04-.11.11-.21.22-.33.34-.1-.1-.19-.19-.28-.28.23-.33.45-.66.69-1.01.23.32.43.63.66.95-.12.13-.25.26-.37.38-.35.36-.7.72-1.04,1.09-.11.11-.21.17-.38.16-.32-.01-.65,0-1,0,.58-1.31,1.16-2.59,1.74-3.89.48.39.93.77,1.4,1.15.8-1.01,1.6-2.01,2.41-3.03h-2.8c-.03.64-.05,1.28-.08,1.97.49-.31.93-.59,1.39-.88-.05-.08-.09-.14-.14-.22-.32.2-.63.39-.94.59v-1.21h2.03c-.65.82-1.28,1.61-1.91,2.41-.49-.4-.97-.8-1.46-1.2-.3.66-.58,1.3-.87,1.94-.31.69-.6,1.39-.94,2.07-.16.33-.39.63-.61.93-.74.99-1.49,1.97-2.24,2.95-.03.04-.07.08-.13.11.1-.39.2-.79.3-1.18.26-1.04.52-2.07.78-3.11.03-.14.1-.23.22-.3.4-.22.78-.45,1.22-.64-.38.78-.75,1.56-1.13,2.35-.02,0-.03-.01-.05-.02.03-.41.06-.81.09-1.27-.07.04-.13.06-.13.08-.05.61-.1,1.23-.14,1.84.02,0,.04.01.06.02.53-1.11,1.07-2.22,1.6-3.32l-.03-.03s-.09.04-.13.06c-.49.28-.98.57-1.47.85-.13.07-.19.16-.22.29-.38,1.53-.76,3.05-1.15,4.58-.03.1-.07.21-.14.3-.22.3-.45.6-.73.89v-3.33s-.03,0-.05-.01c-.61,1.22-1.22,2.45-1.85,3.69-.24-.34-.47-.66-.72-1,.39-.49.79-.98,1.22-1.51-.1.48-.19.89-.55,1.17-.05.04-.06.12-.06.19.26-.24.54-.45.62-.83.07-.36.2-.71.26-1.09-.55.68-1.11,1.37-1.66,2.05.24.34.46.67.7.99.09.13.09.24.02.38-.47.93-.93,1.86-1.4,2.79-.03.06-.13.15-.18.14-.82-.15-1.64-.31-2.5-.48,1.09-.78,2.15-1.54,3.21-2.3-.31-.45-.62-.87-.9-1.31-.06-.1-.1-.24-.09-.36.12-.92.26-1.84.39-2.77.01-.11.02-.22,0-.33-.23-.86-.47-1.72-.7-2.58,0-.03-.02-.06-.05-.14-.05.2-.1.36-.14.52-.19.75-.37,1.5-.57,2.25-.04.15-.03.25.08.37.23.23.44.47.69.75.08-.52.15-.99.22-1.49-.19.08-.35.14-.51.2,0,.03,0,.06.01.08.1-.01.2-.02.32-.04-.04.3-.09.6-.13.94-.2-.21-.37-.39-.53-.59-.03-.04-.03-.12-.02-.17.19-.75.38-1.5.57-2.27.03.05.05.08.06.12.19.69.4,1.38.56,2.08.05.23-.02.49-.05.73-.1.72-.2,1.45-.3,2.17,0,.05-.02.09-.04.18-.1-.13-.18-.24-.25-.35-.43-.61-.85-1.23-1.28-1.84-.08-.12-.09-.22-.05-.35.53-1.79,1.06-3.58,1.58-5.38.03-.11.02-.25-.02-.35-.2-.52-.41-1.03-.63-1.57.47-.12.91-.23,1.36-.35.52-.13,1.04-.27,1.57-.39.16-.04.2-.1.18-.25-.12-.82-.23-1.64-.36-2.46-.03-.2,0-.3.19-.4,1.67-.89,3.34-1.8,5.01-2.7.03-.02.06-.03.12-.05-.04.28-.08.54-.13.79,0,.04-.11.09-.18.1-.26.05-.52.09-.78.12-.15.01-.21.09-.24.23-.08.34-.18.68-.31,1.02-.09-.28-.18-.56-.27-.87-.41.2-.81.38-1.2.57-.04.02-.07.07-.08.11,0,.16,0,.31,0,.49.37-.08.71-.15,1.09-.22-.16-.13-.29-.24-.42-.35q-.04.05.12.27c-.22.05-.43.09-.64.14-.07-.21-.02-.33.19-.41.29-.11.56-.26.86-.4.1.32.19.62.29.95-.41.08-.81.16-1.21.24-.51.1-1.02.19-1.52.29-.09.02-.17.03-.17.16,0,.78,0,1.56,0,2.34,0,.01.01.02.03.06.56-.58,1.11-1.15,1.69-1.76-.33-.08-.63-.16-.94-.23-.03,0-.1.04-.12.07-.1.16-.2.33-.29.5-.02.03,0,.08,0,.12.04-.02.1-.04.12-.07.08-.13.15-.26.23-.39.03-.04.1-.09.14-.08.19.04.38.09.61.15-.45.46-.87.9-1.32,1.37v-2.1c.78-.15,1.56-.3,2.36-.45v.36c-.1-.06-.19-.11-.3-.18-.12.24-.23.47-.36.72-.15-.16-.3-.32-.45-.47-.03-.03-.09-.03-.13-.04.01.04.01.1.04.13.18.2.37.4.57.62.13-.27.25-.52.37-.77.13.08.24.15.4.25,0-.18,0-.33,0-.48,0-.13.02-.21.17-.21.11,0,.23-.02.26-.18,0-.04.12-.08.19-.1.18-.04.27-.14.31-.31.03-.14.09-.27.15-.44.09.15.17.27.26.42.08-.14.15-.24.21-.36.1-.2.19-.39.48-.3-.06-.19-.34-.19-.44-.03-.08.13-.15.26-.24.42-.1-.16-.19-.3-.3-.47-.09.25-.17.47-.23.69-.05.16-.13.25-.33.25.09-.36.18-.71.28-1.06.01-.04.09-.07.15-.08.29-.05.59-.09.88-.15.06-.01.13-.09.15-.15.05-.19.07-.38.1-.6.12.11.22.2.33.31-.06.09-.12.17-.18.25.13.08.14.07.36-.27-.12-.12-.25-.24-.38-.36-.15-.14-.13-.23.05-.33.31-.17.63-.34.95-.51.15-.08.24-.18.29-.35.08-.32.2-.63.28-.95.05-.2.18-.27.34-.26.36.02.72.07,1.14.11-.33.24-.61.44-.92.65v-.33c.08-.06.13-.1.19-.14-.1-.02-.19-.05-.32-.08v.8c.46-.33.92-.65,1.42-1-.43-.04-.79-.08-1.16-.12,0,0,0-.02-.01-.03.21-.08.43-.16.64-.24.21-.08.42-.17.64-.23.15-.04.21-.13.23-.27.02-.18.07-.35.09-.53.02-.12.06-.17.19-.16.19,0,.37,0,.56,0,.15.01.22-.04.26-.19.08-.3.19-.59.27-.89.04-.13.1-.17.23-.19.31-.03.61-.08.89-.12.08-.52.15-1.02.23-1.57-.05.06-.11.1-.12.15-.11.34-.23.68-.19,1.05,0,.07,0,.15,0,.24-.32.04-.63.08-.93.13-.07.01-.17.09-.19.16-.11.3-.2.6-.29.91-.04.14-.1.18-.25.17-.19-.01-.38,0-.6,0,.05-.3.1-.59.16-.89-.31-.12-.62-.23-.93-.35-.28.39-.55.76-.82,1.14-.03.04-.05.12-.03.16.13.28.28.55.42.82.24-.23.46-.45.69-.67.03-.03.04-.07.05-.11,0-.22,0-.45,0-.74-.24.18-.42.33-.6.47q.06.08.43-.15c.19.51-.27.68-.51,1.01-.12-.23-.22-.42-.32-.63-.02-.04,0-.12.03-.16.2-.3.41-.59.63-.87.03-.05.14-.08.2-.06.6.19.6.19.5.8-.06.33-.12.67-.18,1-.01.07-.05.16-.1.18-.6.23-1.2.45-1.84.69.13-.44.25-.84.38-1.24.28-.93.57-1.86.84-2.79.05-.18.12-.25.32-.22.69.09,1.38.16,2.12.24-.29.41-.57.79-.86,1.2-.2-.18-.38-.34-.58-.53.17-.06.31-.1.47-.16-.02-.08-.05-.15-.07-.24-.3.09-.59.17-.92.27.39.36.76.69,1.14,1.04.43-.59.85-1.18,1.29-1.78-.44-.05-.84-.1-1.24-.14,0-.01,0-.02,0-.03.29-.03.58-.05.86-.1.1-.02.21-.07.27-.15.23-.28.44-.58.69-.9-.11,0-.19-.02-.26-.02-.33-.01-.66,0-.99-.04-.28-.03-.53.06-.78.17-.23.1-.45.2-.73.32.35.11.63.31.98.17.19-.08.4-.11.6-.17.03-.01.06-.06.08-.09-.04-.01-.08-.04-.12-.04-.21.05-.42.1-.62.17-.18.06-.35.06-.51-.04.62-.49,1.33-.31,2.07-.3-.21.27-.39.52-.58.76-.02.03-.09.04-.13.04-.51.06-1.01.13-1.52.16-.3.02-.6-.04-.91-.07-.15-.02-.22.01-.26.17-.56,1.85-1.12,3.7-1.69,5.54-.03.09-.09.19-.17.23-1.47.8-2.95,1.59-4.42,2.39-.02,0-.04.02-.1,0,.08-.1.13-.22.23-.3.23-.18.47-.35.71-.5.16-.09.21-.2.16-.37-.02-.08-.03-.16-.05-.29.2.12.36.23.53.31.07.03.17.03.24,0,.15-.06.3-.15.44-.23.04-.02.06-.08.09-.11-.05,0-.12-.02-.15,0-.34.29-.66.24-.99-.03-.09-.07-.2-.12-.33-.2.03.21.07.39.08.57,0,.07-.02.17-.07.21-.21.16-.43.3-.69.48.21-.52.39-.98.58-1.46.34.07.67.15,1,.2.1.02.22-.03.31-.08.09-.04.17-.12.24-.2.23-.28.51-.31.85-.24.52.1.53.09.78-.38.04-.08.09-.17.14-.26.1.09.19.16.3.26.06-.26.11-.48.15-.71,0-.03-.02-.07-.04-.1-.03.03-.08.05-.09.08-.04.14-.07.29-.11.46-.09-.07-.17-.13-.26-.2-.12.21-.22.42-.34.62-.03.05-.09.13-.14.13-.23-.01-.46-.05-.74-.08.55-.46,1.06-.88,1.61-1.35-.71-.04-1.36-.07-2.07-.11.71-.6,1.39-1.17,2.08-1.76.06.23.12.42.16.62,0,.04-.03.12-.07.15-.2.14-.4.27-.65.44.08-.21.14-.37.19-.53.01-.05,0-.1,0-.16-.04.04-.09.07-.11.12-.11.28-.22.56-.35.91.11-.07.17-.1.24-.15.28-.18.55-.36.82-.55.05-.03.1-.12.09-.17-.07-.29-.15-.59-.24-.91-.83.71-1.65,1.39-2.51,2.12.71.04,1.35.07,2.06.11-.63.53-1.23,1.02-1.83,1.52l-.03-.02c.06-.11.11-.21.18-.34-.22-.12-.43-.23-.66-.36.19-.18.37-.34.57-.53-.14-.04-.26-.08-.38-.1-.04,0-.09.02-.14.02.04.04.07.07.11.1.03.02.06.02.12.04-.18.17-.34.32-.52.49.24.13.47.25.71.39-.1.18-.19.35-.3.51-.02.04-.12.05-.17.04-.35-.06-.7-.14-1.07-.21-.14.34-.27.67-.42,1.02-.17-.2-.31-.38-.48-.58-.11.31-.22.6-.33.9-.15-.05-.29-.09-.46-.14.05.29.11.57.15.84-.02,0-.04.02-.05.02-.38-.13-.38-.12-.65.19-.06.07-.16.12-.25.17-.02,0-.05-.02-.07-.03.04.08.08.15.14.26.14-.16.26-.29.37-.43.09-.12.18-.14.31-.07.11.06.23.09.38.15-.06-.31-.11-.58-.17-.89.13.03.24.06.37.09.09-.25.18-.5.29-.79.12.15.23.27.32.4.03.04.02.13,0,.19-.1.27-.21.54-.33.81-.04.08-.12.15-.19.19-.55.3-1.1.61-1.66.89-.18.09-.21.19-.18.37.13.82.24,1.64.36,2.46,0,.05,0,.1.01.17-.89.23-1.78.45-2.67.68,0-.01-.02-.02-.03-.03.67-.8,1.33-1.6,2.02-2.43-.35-.25-.66-.52-1.02-.71-.4-.21-.48-.47-.4-.91.16-.88.26-1.77.35-2.68-.29.43-.58.87-.9,1.35-.03-.39-.06-.72-.07-1.05,0-.04.08-.1.13-.13.44-.24.88-.48,1.35-.73-.3-.16-.57-.31-.87-.46.19-.29.37-.57.56-.87.09.24.02.5.15.7.03,0,.06,0,.08-.01-.04-.34-.07-.68-.12-1.09-.31.47-.58.89-.87,1.33.26.14.5.27.77.42-.4.22-.78.43-1.17.62-.15.08-.19.16-.17.32.04.33.06.66.07.99,0,.1-.03.22-.08.31-.14.24-.3.48-.47.71-.07.09-.07.16-.01.26.33.57.65,1.14.99,1.75-.48-.18-.92-.35-1.43-.54.32.54.61,1.03.92,1.55.23-.17.44-.32.69-.5-.26-.12-.49-.22-.72-.32-.02-.01-.07.02-.1.03.02.03.02.08.05.09.15.08.31.14.51.23-.14.1-.25.18-.39.28-.21-.35-.41-.7-.65-1.09.49.18.92.34,1.41.53-.08-.15-.14-.25-.19-.35-.31-.55-.62-1.09-.92-1.64-.03-.06-.04-.18,0-.24.4-.62.81-1.24,1.22-1.85,0,0,.02-.01.05-.03-.12.85-.24,1.7-.37,2.54-.02.16.01.25.15.34.42.28.84.58,1.27.89-.68.82-1.36,1.63-2.05,2.45-.03-.06-.06-.11-.08-.16-.38-.95-.77-1.89-1.15-2.84-.05-.13-.05-.24,0-.37.67-1.84,1.32-3.69,1.99-5.53.05-.13.06-.24-.05-.33-.41-.37-.5-.81-.34-1.32.02-.06.02-.14.04-.26Z"/></g></svg>